<svg width="120" height="120" viewBox="0 0 120 120" fill="none" xmlns="http://www.w3.org/2000/svg">
    <circle cx="60" cy="60" r="49" stroke="#F37110" stroke-width="2"/>
    <circle cx="60" cy="60" r="59.5" stroke="#E5E5E5"/>
    <path d="M31.4719 36.8486V31.5891H88.5281V36.8486H53.6537H42.4062H31.4719Z" fill="white" stroke="white" stroke-width="0.6"/>
    <path d="M42.7059 39.6963V37.4486H53.3534V39.6963C53.3534 40.9324 52.3418 41.9441 51.1056 41.9441H44.9537C43.7175 41.9441 42.7059 40.9324 42.7059 39.6963Z" fill="white" stroke="white" stroke-width="0.6"/>
    <path d="M42.5067 61.3968V55.9802H48.0297H53.5496V61.3968V67.0228H42.5067V61.3968Z" fill="white" stroke="white" stroke-width="0.6"/>
    <path d="M77.4896 73.3505H66.4467V62.3081H71.9698H77.4896V73.3505Z" fill="white" stroke="white" stroke-width="0.6"/>
    <path d="M81.6261 82.9469H80.2015H70.0069H47.3889H38.3735C39.9781 82.0884 41.0685 80.3968 41.0685 78.4504C41.0685 76.5025 39.9778 74.8094 38.3732 73.9505H66.1471H77.7899H81.6248C80.0203 74.8089 78.9283 76.5008 78.9283 78.4504C78.9283 80.3961 80.0207 82.0882 81.6261 82.9469Z" fill="white" stroke="white" stroke-width="0.6"/>
    <path d="M31.4719 78.4504C31.4719 75.9886 33.51 73.9505 35.9719 73.9505C38.4567 73.9505 40.4685 75.965 40.4685 78.4504C40.4685 80.9257 38.4698 82.9341 35.9943 82.9469H35.9719C33.5098 82.9469 31.4719 80.9087 31.4719 78.4504Z" fill="white" stroke="white" stroke-width="0.6"/>
    <path d="M79.5281 78.4504C79.5281 75.9686 81.5334 73.9602 84.0088 73.9505H84.0088H84.0089H84.0089H84.0089H84.009H84.009H84.009H84.0091H84.0091H84.0092H84.0092H84.0092H84.0093H84.0093H84.0094H84.0094H84.0094H84.0095H84.0095H84.0096H84.0096H84.0096H84.0097H84.0097H84.0098H84.0098H84.0098H84.0099H84.0099H84.0099H84.01H84.01H84.0101H84.0101H84.0101H84.0102H84.0102H84.0103H84.0103H84.0103H84.0104H84.0104H84.0105H84.0105H84.0105H84.0106H84.0106H84.0106H84.0107H84.0107H84.0108H84.0108H84.0108H84.0109H84.0109H84.011H84.011H84.011H84.0111H84.0111H84.0112H84.0112H84.0112H84.0113H84.0113H84.0114H84.0114H84.0114H84.0115H84.0115H84.0115H84.0116H84.0116H84.0117H84.0117H84.0117H84.0118H84.0118H84.0119H84.0119H84.0119H84.012H84.012H84.0121H84.0121H84.0121H84.0122H84.0122H84.0122H84.0123H84.0123H84.0124H84.0124H84.0124H84.0125H84.0125H84.0126H84.0126H84.0126H84.0127H84.0127H84.0128H84.0128H84.0128H84.0129H84.0129H84.0129H84.013H84.013H84.0131H84.0131H84.0131H84.0132H84.0132H84.0133H84.0133H84.0133H84.0134H84.0134H84.0135H84.0135H84.0135H84.0136H84.0136H84.0136H84.0137H84.0137H84.0138H84.0138H84.0138H84.0139H84.0139H84.014H84.014H84.014H84.0141H84.0141H84.0142H84.0142H84.0142H84.0143H84.0143H84.0143H84.0144H84.0144H84.0145H84.0145H84.0145H84.0146H84.0146H84.0147H84.0147H84.0147H84.0148H84.0148H84.0149H84.0149H84.0149H84.015H84.015H84.015H84.0151H84.0151H84.0152H84.0152H84.0152H84.0153H84.0153H84.0154H84.0154H84.0154H84.0155H84.0155H84.0155H84.0156H84.0156H84.0157H84.0157H84.0157H84.0158H84.0158H84.0159H84.0159H84.0159H84.016H84.016H84.0161H84.0161H84.0161H84.0162H84.0162H84.0162H84.0163H84.0163H84.0164H84.0164H84.0164H84.0165H84.0165H84.0166H84.0166H84.0166H84.0167H84.0167H84.0168H84.0168H84.0168H84.0169H84.0169H84.0169H84.017H84.017H84.0171H84.0171H84.0171H84.0172H84.0172H84.0173H84.0173H84.0173H84.0174H84.0174H84.0175H84.0175H84.0175H84.0176H84.0176H84.0176H84.0177H84.0177H84.0178H84.0178H84.0178H84.0179H84.0179H84.018H84.018H84.018H84.0181H84.0181H84.0181H84.0182H84.0182H84.0183H84.0183H84.0183H84.0184H84.0184H84.0185H84.0185H84.0185H84.0186H84.0186H84.0187H84.0187H84.0187H84.0188H84.0188H84.0188H84.0189H84.0189H84.019H84.019H84.019H84.0191H84.0191H84.0192H84.0192H84.0192H84.0193H84.0193H84.0194H84.0194H84.0194H84.0195H84.0195H84.0195H84.0196H84.0196H84.0197H84.0197H84.0197H84.0198H84.0198H84.0199H84.0199H84.0199H84.02H84.02H84.0201H84.0201H84.0201H84.0202H84.0202H84.0202H84.0203H84.0203H84.0204H84.0204H84.0204H84.0205H84.0205H84.0206H84.0206H84.0206H84.0207H84.0207H84.0208H84.0208H84.0208H84.0209H84.0209H84.0209H84.021H84.021H84.0211H84.0211H84.0211H84.0212H84.0212H84.0213H84.0213H84.0213H84.0214H84.0214H84.0214H84.0215H84.0215H84.0216H84.0216H84.0216H84.0217H84.0217H84.0218H84.0218H84.0218H84.0219H84.0219H84.022H84.022H84.022H84.0221H84.0221H84.0221H84.0222H84.0222H84.0223H84.0223H84.0223H84.0224H84.0224H84.0225H84.0225H84.0225H84.0226H84.0226H84.0227H84.0227H84.0227H84.0228H84.0228H84.0228H84.0229H84.0229H84.023H84.023H84.023H84.0231H84.0231H84.0232H84.0232H84.0232H84.0233H84.0233H84.0234H84.0234H84.0234H84.0235H84.0235H84.0235H84.0236H84.0236H84.0237H84.0237H84.0237H84.0238H84.0238H84.0239H84.0239H84.0239H84.024H84.024H84.0241H84.0241H84.0241H84.0242H84.0242H84.0242H84.0243H84.0243H84.0244H84.0244H84.0244H84.0245H84.0245H84.0246H84.0246H84.0246H84.0247H84.0247H84.0248H84.0248H84.0248H84.0249H84.0249H84.0249H84.025H84.025H84.0251H84.0251H84.0251H84.0252H84.0252H84.0253H84.0253H84.0253H84.0254H84.0254H84.0255H84.0255H84.0255H84.0256H84.0256H84.0257H84.0257H84.0257H84.0258H84.0258H84.0258H84.0259H84.0259H84.026H84.026H84.026H84.0261H84.0261H84.0262H84.0262H84.0262H84.0263H84.0263H84.0264H84.0264H84.0264H84.0265H84.0265H84.0265H84.0266H84.0266H84.0267H84.0267H84.0267H84.0268H84.0268H84.0269H84.0269H84.0269H84.027H84.027H84.0271H84.0271H84.0271H84.0272H84.0272H84.0273H84.0273H84.0273H84.0274H84.0274H84.0274H84.0275H84.0275H84.0276H84.0276H84.0276H84.0277H84.0277H84.0278H84.0278H84.0278H84.0279H84.0279H84.028H84.028H84.028H84.0281H84.0281H84.0282C86.49 73.9505 88.5281 75.9886 88.5281 78.4504C88.5281 80.9086 86.4902 82.9469 84.0282 82.9469C81.5429 82.9469 79.5281 80.9319 79.5281 78.4504Z" fill="white" stroke="white" stroke-width="0.6"/>
    <path d="M37.4942 87.701V83.5466H47.0887V87.701C47.0887 88.0901 46.768 88.4108 46.3789 88.4108H38.204C37.8149 88.4108 37.4942 88.0901 37.4942 87.701Z" fill="white" stroke="white" stroke-width="0.6"/>
    <path d="M70.3067 87.701V83.5466H79.9012V87.701C79.9012 88.0901 79.5805 88.4108 79.1914 88.4108H71.0165C70.6274 88.4108 70.3067 88.0901 70.3067 87.701Z" fill="white" stroke="white" stroke-width="0.6"/>
    <path d="M78.6618 72.4786V72.7786H78.9618H84.0281C87.1554 72.7786 89.7 75.3232 89.6998 78.4503C89.6998 81.5754 87.1553 84.1186 84.0279 84.1186H81.3731H81.0731V84.4186V87.7012C81.0731 88.7384 80.2288 89.5829 79.1914 89.5829H71.0166C69.9793 89.5829 69.1349 88.7384 69.1349 87.7012V84.4186V84.1186H68.8349H48.5606H48.2606V84.4186V87.7012C48.2606 88.7384 47.4163 89.5829 46.3789 89.5829H38.2041C37.1668 89.5829 36.3224 88.7384 36.3224 87.7012V84.4186V84.1186H36.0224H35.9719C32.8444 84.1186 30.3 81.5754 30.3 78.4503C30.3 75.3232 32.8446 72.7786 35.9719 72.7786H64.9751H65.2751V72.4786V62.0081C65.2751 61.5265 65.6654 61.1362 66.147 61.1362H77.7899C78.2714 61.1362 78.6618 61.5265 78.6618 62.0081V72.4786ZM79.2882 82.375H79.8966L79.5262 81.8924C78.793 80.9369 78.3563 79.7441 78.3564 78.4504C78.3564 77.1554 78.7935 75.9614 79.5273 75.0051L79.8977 74.5225H79.2893H40.7081H40.0999L40.4701 75.0051C41.2035 75.9613 41.6404 77.1552 41.6404 78.4504C41.6404 79.7441 41.2038 80.9369 40.471 81.8924L40.1009 82.375H40.7091H79.2882ZM71.0981 63.1799V62.8799H70.7981H67.3188H67.3187H67.0187V63.1799V72.4786V72.7786H67.3187H76.6179H76.9179V72.4786V63.1799V62.8799H76.6179H73.1419H72.8419V63.1799V65.26C72.8419 65.7416 72.4515 66.1319 71.97 66.1319C71.4885 66.1319 71.0981 65.7416 71.0981 65.26V63.1799ZM46.217 87.8391H46.517V87.5391V84.4188V84.1188H46.217H38.3661H38.0661V84.4188V87.5391V87.8391H38.3661H46.217ZM79.0296 87.8391H79.3296V87.5391V84.4188V84.1188H79.0296H71.1788H70.8788V84.4188V87.5391V87.8391H71.1788H79.0296ZM35.9719 74.5224C33.8396 74.5224 32.0438 76.3181 32.0438 78.4503C32.0438 80.581 33.8398 82.375 35.9719 82.3749C38.1363 82.3749 39.8966 80.6146 39.8966 78.4503C39.8966 76.2845 38.1366 74.5224 35.9719 74.5224ZM80.1 78.4504C80.1 80.615 81.8622 82.375 84.0281 82.375C86.1602 82.375 87.9563 80.581 87.9563 78.4504C87.9563 76.3182 86.1604 74.5225 84.0281 74.5225C81.862 74.5225 80.1 76.2842 80.1 78.4504Z" fill="#F37110" stroke="white" stroke-width="0.6"/>
    <path d="M87.9562 32.1609V32.4609V35.9766V36.2766H87.6562H32.3438H32.0438V35.9766V32.4609V32.1609H32.3438H54.7366C55.2182 32.1609 55.6085 31.7706 55.6085 31.2891C55.6085 30.8075 55.2182 30.4172 54.7366 30.4172H31.1719C30.6903 30.4172 30.3 30.8075 30.3 31.2891V37.1484C30.3 37.63 30.6903 38.0203 31.1719 38.0203H41.2343H41.5343V38.3203V39.6962C41.5343 41.5815 43.0686 43.1159 44.9541 43.1159H46.8581H47.1581V43.4159V47.6523V47.9523H46.8581H41.7418C41.5289 47.9523 41.3232 48.0303 41.1637 48.1716C41.1637 48.1716 41.1637 48.1716 41.1637 48.1716L36.6228 52.1942L36.6228 52.1942C36.436 52.3596 36.3291 52.5972 36.3291 52.8468V61.3968C36.3291 61.8783 36.7194 62.2686 37.2009 62.2686H41.035H41.335V62.5686V67.3226C41.335 67.8041 41.7253 68.1945 42.2068 68.1945H53.8498C54.3313 68.1945 54.7216 67.8041 54.7216 67.3226V62.5686V62.2686H55.0216H58.8591C59.3406 62.2686 59.7309 61.8783 59.7309 61.3968V52.8468C59.7309 52.5973 59.624 52.3597 59.4372 52.1942L87.9562 32.1609ZM87.9562 32.1609H87.6562H65.2601C64.7785 32.1609 64.3882 31.7706 64.3882 31.2891C64.3882 30.8075 64.7785 30.4172 65.2601 30.4172H88.8281C89.3097 30.4172 89.7 30.8075 89.7 31.2891V37.1484C89.7 37.63 89.3097 38.0203 88.8281 38.0203H54.8257H54.5257V38.3203V39.6962C54.5257 41.5815 52.9914 43.1159 51.1061 43.1159H49.2019H48.9019V43.4159V47.6523V47.9523H49.2019H54.3182C54.5311 47.9523 54.7368 48.0303 54.8963 48.1716C54.8963 48.1716 54.8963 48.1716 54.8963 48.1716L59.4372 52.1941L87.9562 32.1609ZM52.6779 66.4507H52.9779L52.9779 66.1507L52.9778 56.852L52.9778 56.552H52.6778H49.2018H48.9018V56.852V58.9321C48.9018 59.4136 48.5114 59.8039 48.0299 59.8039C47.5483 59.8039 47.158 59.4136 47.158 58.9321V56.852V56.552H46.858H43.3787H43.0787V56.852V66.1507V66.4507H43.3787H52.6779ZM57.9871 53.3742V53.2392L57.886 53.1497L54.0726 49.7715L53.9874 49.6961H53.8737H42.1862H42.0724L41.9873 49.7715L38.1739 53.1497L38.0728 53.2392V53.3742V60.2249V60.5249H38.3728H41.0348H41.3348V60.2249V55.6801C41.3348 55.1986 41.7252 54.8082 42.2067 54.8082H53.8496C54.3312 54.8082 54.7215 55.1986 54.7215 55.6801V60.2249V60.5249H55.0215H57.6871H57.9871V60.2249V53.3742ZM43.5779 38.0203H43.2779V38.3203V39.6962C43.2779 40.6206 44.0295 41.3721 44.9539 41.3721H51.1059C52.0303 41.3721 52.7818 40.6206 52.7818 39.6962L52.7817 38.3203L52.7817 38.0203H52.4817H43.5779Z" fill="#F37110" stroke="white" stroke-width="0.6"/>
    <path d="M47.5219 77.5784H72.4783C72.9599 77.5784 73.3503 77.9688 73.3503 78.4503C73.3503 78.9319 72.96 79.3222 72.4784 79.3222H47.5219C47.0403 79.3222 46.65 78.9319 46.65 78.4503C46.65 77.9688 47.0403 77.5784 47.5219 77.5784Z" fill="#F37110" stroke="white" stroke-width="0.6"/>
    <path d="M60.0052 32.1609H59.9985C59.517 32.1609 59.1268 31.7706 59.1268 31.2891C59.1268 30.8075 59.5171 30.4172 59.9987 30.4172C60.4813 30.4172 60.8738 30.8086 60.8738 31.2891C60.8738 31.7717 60.4857 32.1609 60.0052 32.1609Z" fill="#F37110" stroke="white" stroke-width="0.6"/>
    <path d="M88.9999 77.1429C88.9999 83.6914 83.6913 89 77.1428 89C70.5943 89 65.2856 83.6914 65.2856 77.1429C65.2856 70.5944 70.5943 65.2858 77.1428 65.2858C83.6913 65.2858 88.9999 70.5944 88.9999 77.1429Z" fill="white" stroke="#F37110" stroke-width="2"/>
    <rect x="72" y="73.3193" width="1.86581" height="13.0607" transform="rotate(-45 72 73.3193)" fill="#C4C4C4"/>
    <rect x="73.3193" y="82.5546" width="1.86581" height="13.0606" transform="rotate(-135 73.3193 82.5546)" fill="#C4C4C4"/>
</svg>