<svg width="65" height="31" viewBox="0 0 65 31" fill="none" xmlns="http://www.w3.org/2000/svg">
    <path fill-rule="evenodd" clip-rule="evenodd" d="M11.6042 3.93511C16.9344 5.06384 24.3223 5.76613 32.4997 5.76613C40.6771 5.76613 48.0651 5.06384 53.3952 3.93511C56.0646 3.36983 58.1898 2.7033 59.635 1.97975C60.3585 1.61752 60.8848 1.25407 61.2236 0.903463C61.5604 0.554903 61.6798 0.254556 61.6798 0H62.7282C62.7282 0.613956 62.432 1.16157 61.9775 1.63197C61.5249 2.10033 60.884 2.52687 60.1044 2.9172C58.5433 3.69878 56.3185 4.3877 53.6124 4.96075C48.1917 6.10866 40.7275 6.81451 32.4997 6.81451C24.2719 6.81451 16.8077 6.10866 11.387 4.96075C8.68097 4.3877 6.45613 3.69878 4.89507 2.9172C4.11544 2.52687 3.47454 2.10033 3.02196 1.63197C2.5674 1.16157 2.27124 0.613956 2.27124 0H3.31963C3.31963 0.254556 3.43906 0.554903 3.77588 0.903463C4.11467 1.25407 4.64093 1.61752 5.36442 1.97975C6.8096 2.7033 8.93485 3.36983 11.6042 3.93511Z" fill="#1D86BC"/>
    <path fill-rule="evenodd" clip-rule="evenodd" d="M10.7598 3.77884C4.66495 7.78915 0.785598 12.024 0.485405 12.3588C-0.161802 13.0822 -0.161802 14.1758 0.485405 14.8991C1.06571 15.5464 15.0211 30.7676 32.5 30.7676C49.9789 30.7676 63.9344 15.5464 64.5147 14.8991C65.1618 14.1758 65.1618 13.0822 64.5147 12.3588C64.2146 12.024 60.3352 7.78912 54.2403 3.77881C51.0747 4.63707 47.3458 5.31067 43.2409 5.74327C44.8678 7.95317 45.8301 10.681 45.8301 13.629C45.8301 20.9784 39.8495 26.9591 32.5 26.9591C25.1506 26.9591 19.17 20.9784 19.17 13.629C19.17 10.681 20.1323 7.95318 21.7592 5.74329C17.6543 5.31069 13.9254 4.63709 10.7598 3.77884Z" fill="#1D86BC"/>
    <path fill-rule="evenodd" clip-rule="evenodd" d="M26.8934 5.93774C24.5219 7.67123 22.9785 10.4734 22.9785 13.6291C22.9785 18.879 27.2501 23.1506 32.5 23.1506C37.2003 23.1506 41.0907 19.7185 41.8592 15.234C38.0245 16.4687 34.4043 13.5684 34.4043 9.82051C34.4043 8.43322 34.903 7.16676 35.7276 6.18C34.7081 6.25174 33.6241 6.2904 32.5 6.2904C30.4479 6.2904 28.529 6.16156 26.8934 5.93774Z" fill="#1D86BC"/>
</svg>