<svg width="65" height="38" viewBox="0 0 65 38" fill="none" xmlns="http://www.w3.org/2000/svg">
    <path d="M64.5573 17.6409C64.0283 17.0508 51.3043 3.17261 35.3675 3.17261C19.4306 3.17261 6.70678 17.0508 6.17768 17.6409C5.58758 18.3005 5.58758 19.2976 6.17768 19.9571C6.70678 20.5472 19.4309 34.4254 35.3675 34.4254C51.3041 34.4254 64.0282 20.5472 64.5573 19.9571C65.1473 19.2976 65.1473 18.3005 64.5573 17.6409ZM35.3675 30.9529C28.6665 30.9529 23.2136 25.5 23.2136 18.799C23.2136 12.0981 28.6665 6.64514 35.3675 6.64514C42.0684 6.64514 47.5214 12.0981 47.5214 18.799C47.5214 25.5 42.0684 30.9529 35.3675 30.9529Z" fill="#1D86BC"/>
    <path d="M37.1038 15.3265C37.1038 13.5798 37.9709 12.0432 39.29 11.0981C38.1063 10.4921 36.786 10.1177 35.3675 10.1177C30.5808 10.1177 26.6862 14.0124 26.6862 18.799C26.6862 23.5857 30.5808 27.4804 35.3675 27.4804C39.6531 27.4804 43.2002 24.3511 43.9009 20.2623C40.4045 21.388 37.1038 18.7437 37.1038 15.3265Z" fill="#1D86BC"/>
    <path d="M0 0H1.91176V37.598H0V0Z" fill="#1D86BC"/>
    <path d="M0 1.27441L-5.57105e-08 -9.32217e-05L22.3039 -9.41966e-05L22.3039 1.27441L0 1.27441Z" fill="#1D86BC"/>
    <path d="M0 37.5981L-5.57105e-08 36.3236L22.3039 36.3236L22.3039 37.5981L0 37.5981Z" fill="#1D86BC"/>
</svg>