<svg width="65" height="27" viewBox="0 0 65 27" fill="none" xmlns="http://www.w3.org/2000/svg">
    <path fill-rule="evenodd" clip-rule="evenodd" d="M64.9617 9.19415C60.757 4.72124 52.2258 1.29269 41.7648 4.047e-05C44.2702 2.42511 45.8301 5.82149 45.8301 9.57489C45.8301 16.9243 39.8495 22.905 32.5 22.905C25.1506 22.905 19.17 16.9243 19.17 9.57489C19.17 5.82147 20.7299 2.42507 23.2353 0C12.7744 1.29259 4.24321 4.72106 0.0383566 9.19388C-0.0781809 9.76644 0.0708353 10.3817 0.485405 10.8451C1.06571 11.4923 15.0211 26.7136 32.5 26.7136C49.9789 26.7136 63.9344 11.4923 64.5147 10.8451C64.9291 10.3818 65.0781 9.76663 64.9617 9.19415Z" fill="#1D86BC"/>
    <path d="M34.4043 5.76636C34.4043 3.85063 35.3553 2.16533 36.8021 1.12876C35.5038 0.46416 34.0558 0.0534668 32.5 0.0534668C27.2501 0.0534668 22.9785 4.32506 22.9785 9.57495C22.9785 14.8248 27.2501 19.0964 32.5 19.0964C37.2003 19.0964 41.0907 15.6644 41.8592 11.1799C38.0245 12.4145 34.4043 9.51426 34.4043 5.76636Z" fill="#1D86BC"/>
</svg>