<svg width="65" height="41" viewBox="0 0 65 41" fill="none" xmlns="http://www.w3.org/2000/svg">
    <path d="M64.5147 15.8685C63.9345 15.2213 49.9792 0 32.5 0C15.0209 0 1.06571 15.2213 0.485405 15.8685C-0.161802 16.5919 -0.161802 17.6855 0.485405 18.4088C1.06571 19.056 11.0211 40.5 28.5 40.5C45.9789 40.5 63.9344 19.056 64.5147 18.4088C65.1618 17.6855 65.1618 16.5919 64.5147 15.8685ZM32.5 30.4687C25.1506 30.4687 19.17 24.4881 19.17 17.1387C19.17 9.78922 25.1506 3.80859 32.5 3.80859C39.8495 3.80859 45.8301 9.78922 45.8301 17.1387C45.8301 24.4881 39.8495 30.4687 32.5 30.4687Z" fill="#1D86BC"/>
    <path d="M34.4043 13.3301C34.4043 11.4144 35.3553 9.72905 36.8021 8.69248C35.5038 8.02788 34.0558 7.61719 32.5 7.61719C27.2501 7.61719 22.9785 11.8888 22.9785 17.1387C22.9785 22.3886 27.2501 26.6601 32.5 26.6601C37.2003 26.6601 41.0907 23.2281 41.8592 18.7436C38.0245 19.9782 34.4043 17.078 34.4043 13.3301Z" fill="#1D86BC"/>
</svg>