<svg width="65" height="39" viewBox="0 0 65 39" fill="none" xmlns="http://www.w3.org/2000/svg">
    <path d="M62.9903 17.9889C62.4391 17.3819 49.1794 3.10571 32.5716 3.10571C15.9638 3.10571 2.70423 17.3819 2.15286 17.9889C1.53791 18.6673 1.53791 19.693 2.15286 20.3715C2.70423 20.9785 15.964 35.2547 32.5716 35.2547C49.1792 35.2547 62.439 20.9785 62.9903 20.3715C63.6052 19.693 63.6052 18.6673 62.9903 17.9889ZM32.5716 31.6825C25.5885 31.6825 19.906 26.0733 19.906 19.1802C19.906 12.2871 25.5885 6.67782 32.5716 6.67782C39.5547 6.67782 45.2372 12.2871 45.2372 19.1802C45.2372 26.0733 39.5547 31.6825 32.5716 31.6825Z" fill="#1D86BC"/>
    <path d="M34.4404 15.4575C34.4404 13.5851 35.3352 11.9379 36.6966 10.9248C35.475 10.2752 34.1124 9.87378 32.6484 9.87378C27.7084 9.87378 23.6888 14.0488 23.6888 19.1801C23.6888 24.3113 27.7084 28.4863 32.6484 28.4863C37.0714 28.4863 40.7321 25.1318 41.4554 20.7487C37.8469 21.9554 34.4404 19.1207 34.4404 15.4575Z" fill="#1D86BC"/>
    <path fill-rule="evenodd" clip-rule="evenodd" d="M17.7189 4.22826C17.8356 4.46955 17.7305 4.75782 17.4842 4.87211C11.2885 7.747 4.44497 12.8606 0.881588 17.3033C0.713196 17.5132 0.402948 17.5497 0.18863 17.3847C-0.0256875 17.2198 -0.0629173 16.9159 0.105475 16.7059C3.78025 12.1244 10.755 6.92468 17.0616 3.99831C17.308 3.88401 17.6022 3.98696 17.7189 4.22826Z" fill="#1D86BC"/>
    <path fill-rule="evenodd" clip-rule="evenodd" d="M0.353646 20.6033C0.561608 20.4257 0.874225 20.4502 1.05189 20.6582C5.52076 25.889 12.3733 31.1475 17.7015 33.4087C17.9533 33.5155 18.0708 33.8063 17.9639 34.058C17.857 34.3098 17.5663 34.4273 17.3145 34.3205C11.8198 31.9887 4.8477 26.6261 0.298794 21.3016C0.121124 21.0936 0.145682 20.781 0.353646 20.6033Z" fill="#1D86BC"/>
    <path fill-rule="evenodd" clip-rule="evenodd" d="M64.7137 20.6033C64.5058 20.4257 64.1932 20.4502 64.0155 20.6582C59.5466 25.889 52.6941 31.1475 47.3659 33.4087C47.1141 33.5155 46.9966 33.8063 47.1035 34.058C47.2103 34.3098 47.5011 34.4273 47.7529 34.3205C53.2476 31.9887 60.2197 26.6261 64.7686 21.3016C64.9463 21.0936 64.9217 20.781 64.7137 20.6033Z" fill="#1D86BC"/>
    <path fill-rule="evenodd" clip-rule="evenodd" d="M0.46662 21.0345C0.692276 20.8799 1.00052 20.9376 1.15509 21.1632C5.04314 26.8391 11.2985 32.7956 16.3563 35.6099C16.5953 35.7428 16.6813 36.0444 16.5483 36.2834C16.4153 36.5225 16.1137 36.6084 15.8747 36.4754C10.6588 33.5732 4.2956 27.5005 0.33792 21.723C0.183343 21.4973 0.240963 21.1891 0.46662 21.0345Z" fill="#1D86BC"/>
    <path fill-rule="evenodd" clip-rule="evenodd" d="M64.6008 21.0345C64.3751 20.8799 64.0669 20.9376 63.9123 21.1632C60.0242 26.8391 53.7689 32.7956 48.7111 35.6099C48.472 35.7428 48.3861 36.0444 48.5191 36.2834C48.6521 36.5225 48.9536 36.6084 49.1927 36.4754C54.4086 33.5732 60.7718 27.5005 64.7295 21.723C64.884 21.4973 64.8264 21.1891 64.6008 21.0345Z" fill="#1D86BC"/>
    <path fill-rule="evenodd" clip-rule="evenodd" d="M63.6754 17.0049C63.4762 17.1924 63.1628 17.183 62.9753 16.9838C58.2586 11.9753 51.1598 7.05436 45.7285 5.05359C45.4718 4.95904 45.3404 4.67433 45.435 4.41767C45.5295 4.161 45.8142 4.02959 46.0709 4.12414C51.6719 6.18745 58.8953 11.2065 63.6964 16.3048C63.8839 16.5039 63.8745 16.8173 63.6754 17.0049Z" fill="#1D86BC"/>
</svg>