<svg width="65" height="42" viewBox="0 0 65 42" fill="none" xmlns="http://www.w3.org/2000/svg">
    <path d="M64.5147 15.8685C63.9345 15.2213 49.9792 0 32.5 0C15.0209 0 1.06571 15.2213 0.485405 15.8685C-0.161802 16.5919 -0.161802 17.6855 0.485405 18.4088C1.06571 19.056 15.0211 34.2773 32.5 34.2773C49.9789 34.2773 63.9344 19.056 64.5147 18.4088C65.1618 17.6855 65.1618 16.5919 64.5147 15.8685ZM32.5 30.4687C25.1506 30.4687 19.17 24.4881 19.17 17.1387C19.17 9.78922 25.1506 3.80859 32.5 3.80859C39.8495 3.80859 45.8301 9.78922 45.8301 17.1387C45.8301 24.4881 39.8495 30.4687 32.5 30.4687Z" fill="#1D86BC"/>
    <path d="M34.4043 13.3301C34.4043 11.4144 35.3553 9.72905 36.8021 8.69248C35.5038 8.02788 34.0558 7.61719 32.5 7.61719C27.2501 7.61719 22.9785 11.8888 22.9785 17.1387C22.9785 22.3886 27.2501 26.6601 32.5 26.6601C37.2003 26.6601 41.0907 23.2281 41.8592 18.7436C38.0245 19.9782 34.4043 17.078 34.4043 13.3301Z" fill="#1D86BC"/>
    <path fill-rule="evenodd" clip-rule="evenodd" d="M0.698754 23.9531C0.988258 23.9531 1.22295 24.1878 1.22295 24.4773C1.22295 25.6278 2.0011 27.2052 3.58797 28.9734C5.15461 30.7191 7.43902 32.5715 10.2815 34.266C15.966 37.6547 23.8246 40.3778 32.4998 40.3778C41.175 40.3778 49.0336 37.6547 54.7181 34.266C57.5606 32.5715 59.845 30.7191 61.4117 28.9734C62.9985 27.2052 63.7767 25.6278 63.7767 24.4773C63.7767 24.1878 64.0114 23.9531 64.3009 23.9531C64.5904 23.9531 64.8251 24.1878 64.8251 24.4773C64.8251 26.0289 63.8235 27.8556 62.1919 29.6736C60.5401 31.5142 58.1674 33.4303 55.255 35.1665C49.4298 38.6391 41.3878 41.4262 32.4998 41.4262C23.6118 41.4262 15.5698 38.6391 9.74466 35.1665C6.83226 33.4303 4.45951 31.5142 2.80771 29.6736C1.17614 27.8556 0.174561 26.0289 0.174561 24.4773C0.174561 24.1878 0.40925 23.9531 0.698754 23.9531Z" fill="#1D86BC"/>
</svg>