<svg width="70" height="70" viewBox="0 0 70 70" fill="none" xmlns="http://www.w3.org/2000/svg">
    <path d="M55.9581 2.9951C55.9581 1.90723 55.0761 1.02539 53.9883 1.02539H16.0123C14.9244 1.02539 14.0426 1.90709 14.0426 2.9951C14.0426 4.08284 14.9243 4.96481 16.0123 4.96481H53.9883C55.0759 4.96481 55.9581 4.08297 55.9581 2.9951Z" fill="#2A93C9"/>
    <path d="M47.9809 26.0981C47.9809 25.0104 47.0991 24.1284 46.0112 24.1284H24.3042C23.2163 24.1284 22.3345 25.0103 22.3345 26.0981C22.3345 27.186 23.2162 28.0678 24.3042 28.0678H46.0113C47.0991 28.0677 47.9809 27.186 47.9809 26.0981Z" fill="#F5F5F5"/>
    <path d="M47.9809 33.7668C47.9809 32.679 47.0991 31.7971 46.0112 31.7971H24.3042C23.2163 31.7971 22.3345 32.6788 22.3345 33.7668C22.3345 34.8546 23.2162 35.7366 24.3042 35.7366H46.0113C47.0991 35.7366 47.9809 34.8546 47.9809 33.7668Z" fill="#F5F5F5"/>
    <path d="M47.9809 41.4355C47.9809 40.3478 47.0991 39.4658 46.0112 39.4658H24.3042C23.2163 39.4658 22.3345 40.3477 22.3345 41.4355C22.3345 42.5234 23.2162 43.4052 24.3042 43.4052H46.0113C47.0991 43.4052 47.9809 42.5235 47.9809 41.4355Z" fill="#F5F5F5"/>
    <path d="M47.9809 49.1045C47.9809 48.0166 47.0991 47.1348 46.0112 47.1348H24.3042C23.2163 47.1348 22.3345 48.0166 22.3345 49.1045C22.3345 50.1923 23.2162 51.0742 24.3042 51.0742H46.0113C47.0991 51.0742 47.9809 50.1922 47.9809 49.1045Z" fill="#F5F5F5"/>
    <path d="M34.4423 26.0981C34.4423 25.0104 35.324 24.1284 36.412 24.1284H24.3042C23.2163 24.1284 22.3345 25.0103 22.3345 26.0981C22.3345 27.186 23.2162 28.0678 24.3042 28.0678H36.412C35.3242 28.0677 34.4423 27.186 34.4423 26.0981Z" fill="#EDEDED"/>
    <path d="M35.1578 9.74121C30.6204 9.74121 26.7249 11.8182 25.0335 14.7853C26.725 17.7523 30.6204 19.8294 35.1578 19.8294C39.6952 19.8294 43.5906 17.7523 45.282 14.7853C43.5905 11.8184 39.6952 9.74121 35.1578 9.74121Z" fill="#2A93C9"/>
    <path d="M35.1581 19.83C37.944 19.83 40.2024 17.5716 40.2024 14.7857C40.2024 11.9998 37.944 9.74146 35.1581 9.74146C32.3723 9.74146 30.1139 11.9998 30.1139 14.7857C30.1139 17.5716 32.3723 19.83 35.1581 19.83Z" fill="white"/>
    <path d="M16.21 31.1562H6.32115C5.23355 31.1562 4.35144 32.0381 4.35144 33.126C4.35144 34.2138 5.23342 35.0957 6.32115 35.0957H16.21V31.1562Z" fill="#2A93C9"/>
    <path d="M63.679 31.1562H53.7904V35.0957H63.679C64.7669 35.0957 65.6487 34.2138 65.6487 33.126C65.6487 32.0381 64.767 31.1562 63.679 31.1562Z" fill="#2A93C9"/>
    <path d="M64.3104 64.0773V36.0535C65.6597 35.7627 66.674 34.5608 66.674 33.1259C66.674 31.4744 65.3303 30.1308 63.6789 30.1308H54.8157V12.9999C54.8157 12.4336 54.3566 11.9745 53.7903 11.9745C53.224 11.9745 52.7649 12.4336 52.7649 12.9999C52.7649 13.7861 52.7649 60.8772 52.7649 64.0098H43.058V57.1933C43.058 55.5852 41.7497 54.2769 40.1418 54.2769H35H29.8586C28.2505 54.2769 26.9422 55.5853 26.9422 57.1933V64.0098H17.2354C17.2354 60.206 17.2354 8.14927 17.2354 5.99034H52.7648V9.30838C52.7648 9.87467 53.2239 10.3338 53.7901 10.3338C54.3564 10.3338 54.8155 9.87467 54.8155 9.30838V5.87318C56.0657 5.51319 56.9832 4.3597 56.9832 2.99524C56.9834 1.34367 55.6397 0 53.9881 0H16.0121C14.3605 0 13.017 1.34367 13.017 2.9951C13.017 4.35956 13.9344 5.51292 15.1847 5.87304V30.1307H6.32103C4.66947 30.1307 3.32593 31.4744 3.32593 33.1258C3.32593 34.5607 4.34025 35.7626 5.68953 36.0534V64.0771C4.34025 64.3679 3.32593 65.5698 3.32593 67.0046C3.32593 68.6562 4.6696 69.9997 6.32103 69.9997H63.6789C65.3305 69.9997 66.674 68.6561 66.674 67.0046C66.6743 65.57 65.6597 64.3683 64.3104 64.0773ZM63.6789 32.1816C64.1995 32.1816 64.6231 32.6052 64.6231 33.1258C64.6231 33.6464 64.1995 34.07 63.6789 34.07C62.744 34.07 55.8275 34.07 54.8157 34.07V32.1813L63.6789 32.1816ZM54.8157 36.1212H62.2595V64.0098H54.8157V36.1212ZM41.0069 57.1931V64.0097H36.0256V56.3276H40.1416C40.6188 56.3277 41.0069 56.716 41.0069 57.1931ZM28.9933 57.1931C28.9933 56.716 29.3816 56.3277 29.8587 56.3277H33.9748V64.0098H28.9933V57.1931ZM7.74031 36.1212H15.1844V64.0097H7.74031V36.1212ZM16.0121 2.05092H53.9881C54.5087 2.05092 54.9323 2.47448 54.9323 2.9951C54.9323 3.51573 54.5087 3.93929 53.9881 3.93929C49.3261 3.93929 20.698 3.93929 16.0121 3.93929C15.4915 3.93929 15.0679 3.51573 15.0679 2.9951C15.0679 2.47448 15.4915 2.05092 16.0121 2.05092ZM5.37671 33.1259C5.37671 32.6053 5.80027 32.1817 6.32089 32.1817H15.1844V34.0702C4.72279 34.0702 7.06273 34.0704 6.71301 34.0704H6.32089C5.80041 34.0702 5.37671 33.6466 5.37671 33.1259ZM63.6789 67.9492H6.32103C5.80041 67.9492 5.37685 67.5257 5.37685 67.005C5.37685 66.4844 5.80041 66.0609 6.32103 66.0609C8.79688 66.0609 61.0957 66.0609 63.285 66.0609H63.6789C64.1995 66.0609 64.6231 66.4844 64.6231 67.005C64.6232 67.5257 64.1995 67.9492 63.6789 67.9492Z" fill="black"/>
    <path d="M46.0113 23.1028H31.7022C31.1359 23.1028 30.6768 23.5619 30.6768 24.1282C30.6768 24.6945 31.1359 25.1536 31.7022 25.1536H46.0113C46.5319 25.1536 46.9555 25.5771 46.9555 26.0978C46.9555 26.6184 46.5319 27.0419 46.0113 27.0419H24.3043C23.7837 27.0419 23.3601 26.6184 23.3601 26.0978C23.3601 25.5771 23.7837 25.1536 24.3043 25.1536H27.8738C28.4401 25.1536 28.8992 24.6945 28.8992 24.1282C28.8992 23.5619 28.4401 23.1028 27.8738 23.1028H24.3043C22.6527 23.1028 21.3092 24.4465 21.3092 26.0979C21.3092 27.7495 22.6529 29.093 24.3043 29.093H46.0115C47.663 29.093 49.0066 27.7493 49.0066 26.0979C49.0066 24.4465 47.6629 23.1028 46.0113 23.1028Z" fill="black"/>
    <path d="M46.0113 30.7717H24.3043C22.6527 30.7717 21.3092 32.1154 21.3092 33.7668C21.3092 35.4184 22.6529 36.7619 24.3043 36.7619H46.0115C47.663 36.7619 49.0066 35.4183 49.0066 33.7668C49.0066 32.1154 47.6629 30.7717 46.0113 30.7717ZM46.0113 34.7109H24.3043C23.7837 34.7109 23.3601 34.2873 23.3601 33.7667C23.3601 33.2461 23.7837 32.8225 24.3043 32.8225H46.0115C46.5321 32.8225 46.9556 33.2461 46.9556 33.7667C46.9556 34.2873 46.5321 34.7109 46.0113 34.7109Z" fill="black"/>
    <path d="M46.0113 38.4404H24.3043C22.6527 38.4404 21.3092 39.7841 21.3092 41.4355C21.3092 43.087 22.6529 44.4306 24.3043 44.4306H38.1512C38.7175 44.4306 39.1766 43.9715 39.1766 43.4052C39.1766 42.839 38.7175 42.3799 38.1512 42.3799H24.3043C23.7837 42.3799 23.3601 41.9563 23.3601 41.4357C23.3601 40.915 23.7837 40.4915 24.3043 40.4915H46.0115C46.5321 40.4915 46.9556 40.915 46.9556 41.4357C46.9556 41.9563 46.5321 42.3799 46.0115 42.3799H41.7517C41.1854 42.3799 40.7263 42.839 40.7263 43.4052C40.7263 43.9715 41.1854 44.4306 41.7517 44.4306H46.0115C47.663 44.4306 49.0066 43.087 49.0066 41.4355C49.0066 39.7841 47.6629 38.4404 46.0113 38.4404Z" fill="black"/>
    <path d="M46.0113 46.1089H24.3043C22.6527 46.1089 21.3092 47.4526 21.3092 49.104C21.3092 50.7554 22.6529 52.0991 24.3043 52.0991H46.0115C47.663 52.0991 49.0066 50.7554 49.0066 49.104C49.0066 47.4526 47.6629 46.1089 46.0113 46.1089ZM46.0113 50.0484H24.3043C23.7837 50.0484 23.3601 49.6249 23.3601 49.1043C23.3601 48.5836 23.7837 48.1601 24.3043 48.1601H46.0115C46.5321 48.1601 46.9556 48.5836 46.9556 49.1043C46.9556 49.6249 46.5321 50.0484 46.0113 50.0484Z" fill="black"/>
    <path d="M35.1578 20.855C39.9231 20.855 44.2467 18.6718 46.1729 15.2932C46.3524 14.9785 46.3524 14.5924 46.1729 14.2775C41.958 6.88446 28.3564 6.88624 24.1426 14.2775C23.9631 14.5923 23.9631 14.9784 24.1426 15.2932C26.0687 18.6718 30.3923 20.855 35.1578 20.855ZM31.1388 14.7855C31.1388 12.5695 32.9417 10.7667 35.1578 10.7667C37.3737 10.7667 39.1766 12.5695 39.1766 14.7855C39.1766 17.0014 37.3737 18.8042 35.1578 18.8042C32.9417 18.804 31.1388 17.0014 31.1388 14.7855ZM44.0706 14.7855C43.237 15.9872 41.993 16.9734 40.4975 17.6685C40.9626 16.8104 41.2271 15.8282 41.2271 14.7855C41.2271 13.7427 40.9626 12.7606 40.4975 11.9026C41.9932 12.5975 43.237 13.5837 44.0706 14.7855ZM29.8175 11.9023C28.8584 13.6719 28.8301 15.8468 29.8175 17.6683C28.3219 16.9732 27.0781 15.9869 26.2444 14.7853C27.0781 13.5837 28.3221 12.5975 29.8175 11.9023Z" fill="black"/>
</svg>