<svg width="70" height="70" viewBox="0 0 70 70" fill="none" xmlns="http://www.w3.org/2000/svg">
    <path d="M40.2794 12.6097L37.1097 11.761L40.2794 12.6097Z" fill="white"/>
    <path d="M34.617 33.7399L38.8433 34.8719L34.617 33.7399Z" fill="white"/>
    <path d="M31.372 37.3995L30.2399 41.6247L34.4662 42.7578L35.5982 38.5316L33.4851 37.965L31.372 37.3995Z" fill="white"/>
    <path d="M33.4852 37.9652L35.5984 38.5318L33.4852 37.9652Z" fill="white"/>
    <path d="M22.9688 49.2188V53.5938H42.6562V51.4063V49.2188H22.9688Z" fill="#2A93C9"/>
    <path d="M65.625 58.2531V33.9062C65.6215 30.1362 64.1224 26.5216 61.4566 23.8558C58.7908 21.1901 55.1762 19.6909 51.4062 19.6874H50.1922C49.5177 19.0281 48.7281 18.498 47.8625 18.1234L48.7266 14.8749C48.7649 14.737 48.7755 14.5929 48.7576 14.4509C48.7398 14.3089 48.694 14.1718 48.6227 14.0477C48.5515 13.9235 48.4563 13.8148 48.3427 13.7277C48.2291 13.6407 48.0993 13.577 47.9609 13.5406L44.7891 12.6874L45.6422 9.51555C45.8792 9.41803 46.1094 9.30476 46.3312 9.17649C46.9556 8.81934 47.5025 8.34136 47.9401 7.77047C48.3777 7.19957 48.6971 6.54721 48.8797 5.85149C48.9535 5.57307 48.9145 5.27678 48.7711 5.02694C48.6278 4.77711 48.3917 4.59391 48.1141 4.51711L37.5484 1.6843C37.2671 1.60941 36.9675 1.64909 36.7153 1.79465C36.4632 1.9402 36.279 2.17977 36.2031 2.46086C36.0161 3.15371 35.9681 3.87673 36.062 4.58822C36.1558 5.2997 36.3897 5.98555 36.75 6.60618C36.8832 6.82255 37.0293 7.03074 37.1875 7.22961L36.3344 10.4234L33.1625 9.57024C32.8826 9.49684 32.585 9.53734 32.3349 9.68289C32.0848 9.82845 31.9026 10.0672 31.8281 10.3468L26.1625 31.4781C26.1246 31.6167 26.1148 31.7614 26.1334 31.9039C26.1521 32.0464 26.1989 32.1838 26.2712 32.3079C26.3435 32.4321 26.4398 32.5407 26.5544 32.6273C26.6691 32.7139 26.7998 32.7769 26.9391 32.8124L29.05 33.3812L28.2078 36.5531C28.1302 36.8323 28.1656 37.1309 28.3062 37.3843C28.4567 37.6307 28.6952 37.8105 28.9734 37.8874L30.0344 38.1718L29.1812 41.3437C29.1074 41.6244 29.1467 41.9229 29.2906 42.1749C29.3626 42.2991 29.4588 42.4076 29.5733 42.494C29.6879 42.5804 29.8187 42.643 29.9578 42.6781L34.1797 43.8156C34.2729 43.8372 34.3683 43.8483 34.4641 43.8484C34.6559 43.8519 34.8451 43.8028 35.0109 43.7062C35.1365 43.6345 35.2465 43.5386 35.3348 43.4241C35.423 43.3095 35.4877 43.1787 35.525 43.039L36.3672 39.8671L37.4281 40.1515C37.5196 40.1828 37.6159 40.1976 37.7125 40.1952C37.9051 40.1936 38.0939 40.1408 38.2594 40.0421C38.3835 39.9727 38.4921 39.8787 38.5786 39.7659C38.6652 39.6531 38.7277 39.5237 38.7625 39.3859L39.6156 36.214L41.7266 36.7718C41.8184 36.8015 41.9144 36.8163 42.0109 36.8156C42.2523 36.8166 42.4872 36.7378 42.6791 36.5914C42.871 36.445 43.0091 36.2392 43.0719 36.0062L43.9359 32.7577C44.2374 32.792 44.5404 32.8102 44.8438 32.8124C46.8357 32.8015 48.7456 32.0172 50.1703 30.6249H51.4062C52.2757 30.6275 53.1088 30.9741 53.7236 31.5889C54.3384 32.2036 54.6849 33.0367 54.6875 33.9062V50.2796L43.75 50.3124V49.2187C43.75 48.9286 43.6348 48.6504 43.4296 48.4453C43.2245 48.2402 42.9463 48.1249 42.6562 48.1249H22.9688C22.6787 48.1249 22.4005 48.2402 22.1954 48.4453C21.9902 48.6504 21.875 48.9286 21.875 49.2187V53.5937C21.875 53.8838 21.9902 54.162 22.1954 54.3671C22.4005 54.5722 22.6787 54.6874 22.9688 54.6874H42.6562C42.9463 54.6874 43.2245 54.5722 43.4296 54.3671C43.6348 54.162 43.75 53.8838 43.75 53.5937V52.4999L54.6875 52.4671V56.8749H16.4062C14.3764 56.8772 12.4303 57.6846 10.995 59.1199C9.5597 60.5553 8.75232 62.5013 8.75 64.5312V66.7187C8.75 67.0088 8.86523 67.287 9.07035 67.4921C9.27547 67.6972 9.55367 67.8124 9.84375 67.8124H67.8125C68.1026 67.8124 68.3808 67.6972 68.5859 67.4921C68.791 67.287 68.9062 67.0088 68.9062 66.7187V64.5312C68.9045 63.298 68.6054 62.0834 68.0341 60.9904C67.4629 59.8975 66.6365 58.9585 65.625 58.2531ZM46.3094 6.29993C46.0295 6.70344 45.6633 7.03968 45.2375 7.2843C44.8663 7.50136 44.4555 7.64218 44.0292 7.69853C43.6028 7.75487 43.1696 7.7256 42.7547 7.61243L40.6437 7.04368C39.9872 6.87055 39.4008 6.49749 38.9657 5.97621C38.5307 5.45492 38.2685 4.81122 38.2156 4.1343L46.3094 6.29993ZM43.2688 9.88743L42.6781 12.1187L38.4453 10.9921L39.0469 8.7718C39.378 8.92855 39.722 9.05662 40.075 9.15461L42.1859 9.72336C42.5402 9.81533 42.9031 9.87031 43.2688 9.88743ZM33.6875 41.4202L31.5766 40.8515L32.1453 38.7406L33.8406 39.189L34.2563 39.3093L33.6875 41.4202ZM36.9359 37.7562L30.6031 36.0609L31.1609 33.9499L37.5047 35.6452L36.9359 37.7562ZM41.2453 34.3765L28.5578 30.9859L33.6547 11.9656L46.3312 15.3671L45.7516 17.5656C43.9245 17.3471 42.0799 17.794 40.5555 18.8244C39.031 19.8548 37.9285 21.3998 37.45 23.1765C36.9748 24.9537 37.1554 26.8427 37.9588 28.4976C38.7622 30.1526 40.1346 31.463 41.825 32.189L41.2453 34.3765ZM50.1266 26.5671C49.8472 27.6122 49.2642 28.551 48.4513 29.2648C47.6383 29.9785 46.6319 30.4351 45.5594 30.5767C44.4869 30.7184 43.3965 30.5388 42.4261 30.0607C41.4557 29.5825 40.6489 28.8273 40.1078 27.8906C39.7453 27.2708 39.5101 26.5849 39.4162 25.8731C39.3223 25.1612 39.3715 24.4378 39.5609 23.7452C39.8717 22.5815 40.558 21.5529 41.5132 20.8192C42.4685 20.0854 43.6392 19.6876 44.8438 19.6874C45.3204 19.6846 45.7951 19.7472 46.2547 19.8734C47.3013 20.1507 48.2417 20.7333 48.9562 21.5468V21.5577C49.1944 21.8226 49.4034 22.1123 49.5797 22.4218C49.9422 23.0415 50.1774 23.7275 50.2713 24.4393C50.3652 25.1511 50.316 25.8745 50.1266 26.5671ZM41.5625 52.4999H24.0625V50.3124H41.5625V52.4999ZM51.7344 28.4702C51.9472 28.0438 52.1158 27.5967 52.2375 27.1359C52.7161 25.3898 52.5491 23.5297 51.7672 21.8968C54.8913 21.9906 57.8563 23.2964 60.0346 25.5379C62.2128 27.7794 63.4332 30.7806 63.4375 33.9062V57.1921C62.7267 56.985 61.9904 56.8783 61.25 56.8749H56.875V33.9062C56.871 32.516 56.337 31.1797 55.3818 30.1696C54.4266 29.1596 53.1222 28.5518 51.7344 28.4702ZM66.7188 65.6249H10.9375V64.5312C10.9375 63.0808 11.5137 61.6898 12.5393 60.6642C13.5648 59.6386 14.9558 59.0624 16.4062 59.0624H61.25C62.7004 59.0624 64.0914 59.6386 65.117 60.6642C66.1426 61.6898 66.7188 63.0808 66.7188 64.5312V65.6249Z" fill="#272727"/>
    <path d="M44.8438 28.4375C44.1948 28.4375 43.5604 28.2451 43.0208 27.8845C42.4812 27.524 42.0606 27.0115 41.8123 26.4119C41.5639 25.8124 41.4989 25.1526 41.6255 24.5161C41.7522 23.8796 42.0647 23.2949 42.5236 22.8361C42.9825 22.3772 43.5671 22.0647 44.2036 21.938C44.8401 21.8114 45.4999 21.8764 46.0994 22.1248C46.699 22.3731 47.2115 22.7937 47.572 23.3333C47.9326 23.8729 48.125 24.5073 48.125 25.1562C48.125 26.0265 47.7793 26.8611 47.1639 27.4764C46.5486 28.0918 45.714 28.4375 44.8438 28.4375ZM44.8438 24.0625C44.6274 24.0625 44.416 24.1266 44.2361 24.2468C44.0562 24.367 43.916 24.5378 43.8333 24.7377C43.7505 24.9375 43.7288 25.1575 43.771 25.3696C43.8132 25.5818 43.9174 25.7767 44.0704 25.9296C44.2233 26.0826 44.4182 26.1868 44.6304 26.229C44.8425 26.2712 45.0625 26.2495 45.2623 26.1667C45.4622 26.084 45.633 25.9438 45.7532 25.7639C45.8734 25.584 45.9375 25.3726 45.9375 25.1562C45.9375 24.8662 45.8223 24.588 45.6172 24.3829C45.412 24.1777 45.1338 24.0625 44.8438 24.0625Z" fill="#272727"/>
</svg>