<svg width="70" height="70" viewBox="0 0 70 70" fill="none" xmlns="http://www.w3.org/2000/svg">
    <path d="M41.4465 48.3022H55.2358L53.0926 69.0244H43.6422L41.4465 48.3022Z" fill="#2A93C9"/>
    <path d="M24.3057 13.2415V11.7021H18.1483V20.7349H24.4203V19.1954H19.9039V16.8419H23.7078V15.4169H19.9039V13.2415H24.3057Z" fill="#272727"/>
    <path d="M17.1718 26.188V24.8423H12.6677V31.477H14.2003V28.8604H16.6486V27.6175H14.2003V26.188H17.1718Z" fill="#272727"/>
    <path d="M30.717 28.6455C32.065 27.0916 30.8898 24.8423 29.1331 24.8423H26.3015V31.477H27.8341V29.337C29.0482 29.3369 29.9721 29.504 30.717 28.6455ZM27.8343 26.188C28.9856 26.188 29.4604 26.0513 29.689 26.6833C29.8793 27.2109 29.6668 28.001 29.0863 28.001H27.8341V26.188H27.8343Z" fill="#272727"/>
    <path d="M12.4898 41.8763V38.6695H13.7012V37.6602H10.1146V38.6695H11.3318V41.8763H12.4898Z" fill="#272727"/>
    <path d="M28.9045 41.8763H32.2477V40.8668H30.3592L32.212 38.5212V37.6602H28.9935V38.6695H30.8759L28.9045 41.0152V41.8763Z" fill="#272727"/>
    <path d="M20.2714 37.8116C18.8819 38.4282 18.5624 40.1645 19.5677 41.2439C20.4052 42.1442 21.8204 42.123 22.6555 41.2617C24.2844 39.5819 22.3886 36.8727 20.2714 37.8116ZM21.845 38.9994C22.2206 39.4666 22.1822 40.4538 21.5572 40.7867C21.0069 41.0792 20.1557 40.7698 20.1557 39.7743C20.1556 38.5676 21.3595 38.3945 21.845 38.9994Z" fill="#272727"/>
    <path d="M67.7306 44.2159C66.753 43.1773 65.5286 42.4408 64.949 42.2196C61.2635 40.7725 58.2552 39.5911 53.8448 37.8593V37.7733H59.3068C59.8732 37.7733 60.3323 37.314 60.3323 36.7477V28.671C61.5473 27.1787 61.5476 25.0455 60.3323 23.5529C60.3323 19.6877 60.6443 16.9448 58.5215 13.5481C58.2214 13.0677 57.5887 12.9218 57.1084 13.222C56.6279 13.5221 56.4819 14.1549 56.7823 14.6353C58.4776 17.3479 58.2813 19.5926 58.2813 22.2021C57.9816 22.1182 57.6462 22.0673 57.3285 22.0561V21.7776C57.3285 21.2858 56.9747 20.8626 56.4918 20.7696C56.464 20.7643 53.6899 20.2033 51.3104 17.4142C50.8915 16.923 50.1249 16.9363 49.7242 17.4457C49.6713 17.513 44.5692 23.9166 38.4664 24.9693V19.8779C38.4664 11.5199 48.2416 6.92165 54.6761 12.2329C55.1131 12.5934 55.7594 12.5316 56.12 12.0948C56.4807 11.658 56.4188 11.0116 55.9819 10.6509C51.9527 7.3251 46.1124 6.95692 41.6634 9.98414V2.90212C41.6634 1.30197 40.3616 0 38.7614 0H12.5135C11.9471 0 11.488 0.459237 11.488 1.02553C11.488 1.59181 11.9472 2.05105 12.5135 2.05105H38.7616C39.2308 2.05105 39.6125 2.43277 39.6125 2.90199V11.7479C37.63 13.8832 36.4155 16.741 36.4155 19.8776V36.7476C36.4155 37.314 36.8747 37.7731 37.441 37.7731H42.9026V37.8591C42.892 37.8634 31.794 42.2211 31.7835 42.2255C31.0115 42.5427 29.8427 43.3031 28.9061 44.3369H9.35602C8.7896 44.3369 8.3305 44.7961 8.3305 45.3624C8.3305 45.9287 8.78973 46.3879 9.35602 46.3879H27.5429C26.5877 48.4632 26.7979 49.6707 26.7979 55.8244H2.9524C2.48318 55.8244 2.10147 55.4426 2.10147 54.9734V2.90212C2.10147 2.43291 2.48318 2.05119 2.9524 2.05119H8.82132C9.38774 2.05119 9.84684 1.59195 9.84684 1.02566C9.84684 0.459374 9.38774 0 8.82132 0H2.9524C1.35225 0 0.050415 1.30197 0.050415 2.90212V54.9738C0.050415 56.574 1.35239 57.8759 2.95254 57.8759H26.798V68.9745C26.798 69.5409 27.2573 70 27.8235 70H37.8893C38.4557 70 38.9148 69.5408 38.9148 68.9745C38.9148 68.4082 38.4556 67.949 37.8893 67.949H36.2985V52.9501C36.2985 52.3837 35.8392 51.9246 35.2729 51.9246C34.7065 51.9246 34.2474 52.3838 34.2474 52.9501V67.9488H28.8492C28.8492 48.6334 28.7247 49.1524 29.1973 47.7898C29.8225 45.9883 31.3346 44.648 32.5588 44.1248C33.9664 43.5719 38.5211 41.7835 39.9502 41.2223C40.0949 42.5871 42.6755 66.9431 42.7822 67.9488H41.7264C41.16 67.9488 40.7009 68.4081 40.7009 68.9743C40.7009 69.5406 41.1602 69.9999 41.7264 69.9999C41.7963 69.9999 43.9895 69.9999 43.9208 69.9999C44.5938 69.9999 68.2507 69.9999 68.924 69.9999C69.4904 69.9999 69.9495 69.5406 69.9495 68.9743V49.9214C69.9494 47.7681 69.2313 45.8107 67.7306 44.2159ZM44.8446 67.9487L42.8663 49.2777H53.8315L51.9005 67.9487H44.8446ZM58.2811 35.7219H54.1417C55.7874 34.349 56.9269 32.3908 57.2399 30.1699C57.5928 30.1652 57.9579 30.112 58.2811 30.0217V35.7219ZM58.2049 27.84C57.9317 28.002 57.6241 28.094 57.3284 28.1152V24.1084C59.2603 24.2468 59.913 26.8264 58.2049 27.84ZM41.4701 26.2498C45.7126 24.6219 49.1027 21.2462 50.5643 19.6194C52.3738 21.397 54.2335 22.2109 55.2773 22.557C55.2773 23.4714 55.2773 28.0978 55.2773 28.9318C55.2773 33.6631 50.5403 36.9814 45.9252 35.3085C43.3278 34.3543 41.4698 31.8561 41.4698 28.9318L41.4701 26.2498ZM38.4664 27.0451C38.7869 26.9992 39.1047 26.9422 39.4189 26.8724V28.9318C39.4189 31.6579 40.6598 34.0991 42.6054 35.7222H38.4664V27.0451ZM44.9537 37.1333C47.1337 38.0136 49.7094 37.9748 51.7937 37.1333C51.7937 39.6555 51.4723 39.131 54.8171 40.4446L54.0985 47.2267H42.649L41.9304 40.4446C45.3057 39.1191 44.9537 39.6203 44.9537 37.1333ZM67.8982 67.9487H62.5919V52.9501C62.5919 52.3837 62.1326 51.9246 61.5664 51.9246C61.0001 51.9246 60.5408 52.3838 60.5408 52.9501V67.9488H53.9653L56.7972 41.2223C57.6526 41.5582 63.3204 43.7838 64.187 44.1243C64.3365 44.1885 65.8544 44.8714 66.9021 46.4717C68.2225 48.4889 67.8982 48.2776 67.8982 67.9487Z" fill="#272727"/>
    <path d="M8.33032 34.3795C8.33032 34.946 8.78956 35.4051 9.35585 35.4051H33.0061C33.5725 35.4051 34.0316 34.9458 34.0316 34.3795C34.0316 33.8132 33.5724 33.354 33.0061 33.354H9.35598C8.78956 33.3539 8.33032 33.8131 8.33032 34.3795Z" fill="#272727"/>
</svg>