<svg width="70" height="70" viewBox="0 0 70 70" fill="none" xmlns="http://www.w3.org/2000/svg">
    <path fill-rule="evenodd" clip-rule="evenodd" d="M68.6328 1.50391H1.36719V8.33998H14.4739H27.596H68.6328V1.50391Z" fill="white"/>
    <path fill-rule="evenodd" clip-rule="evenodd" d="M27.5958 8.34003H14.4736V11.3124C14.4736 12.9479 15.8106 14.2848 17.446 14.2848H24.6234C26.2588 14.2848 27.5958 12.9479 27.5958 11.3124V8.34003Z" fill="white"/>
    <path fill-rule="evenodd" clip-rule="evenodd" d="M14.2413 29.9601V36.6296V43.5432H27.8248V36.6296V29.9601H21.0349H14.2413Z" fill="#2A93C9"/>
    <path fill-rule="evenodd" clip-rule="evenodd" d="M42.1714 37.3427V50.9255H55.7548V37.3427H48.9649H42.1714Z" fill="#2A93C9"/>
    <path fill-rule="evenodd" clip-rule="evenodd" d="M55.7548 50.9257H42.1716H6.96716C10.0597 50.9257 12.5632 53.4329 12.5632 56.5255C12.5632 59.6063 10.0752 62.106 6.99423 62.1214H8.39328H20.287H46.6747H58.5684H63.0329C59.9403 62.1214 57.4329 59.6141 57.4329 56.5255C57.4329 53.4369 59.9287 50.9374 63.0097 50.9257H55.7548Z" fill="white"/>
    <path fill-rule="evenodd" clip-rule="evenodd" d="M6.96719 50.9257C3.90168 50.9257 1.36719 53.4601 1.36719 56.5255C1.36719 59.5871 3.90168 62.1214 6.96719 62.1214H6.99426C10.0752 62.106 12.5632 59.6063 12.5632 56.5255C12.5632 53.4329 10.0598 50.9257 6.96719 50.9257Z" fill="white"/>
    <path fill-rule="evenodd" clip-rule="evenodd" d="M63.0095 50.9257C59.9285 50.9373 57.4327 53.4369 57.4327 56.5255C57.4327 59.6141 59.9402 62.1214 63.0327 62.1214C66.0983 62.1214 68.6327 59.5869 68.6327 56.5255C68.6327 53.4601 66.0983 50.9257 63.0327 50.9257C63.025 50.9257 63.0173 50.9257 63.0095 50.9257Z" fill="white"/>
    <path fill-rule="evenodd" clip-rule="evenodd" d="M8.39319 62.1211V67.3179C8.39319 67.9651 8.92407 68.496 9.57129 68.496H19.1087C19.7559 68.496 20.2868 67.9651 20.2868 67.3179V62.1211H8.39319Z" fill="white"/>
    <path fill-rule="evenodd" clip-rule="evenodd" d="M46.6746 62.1211V67.3179C46.6746 67.9651 47.2054 68.496 47.8527 68.496H57.39C58.0373 68.496 58.5681 67.9651 58.5681 67.3179V62.1211H46.6746Z" fill="white"/>
    <path d="M63.0328 49.5583H57.1221V37.3427C57.1221 36.5876 56.51 35.9755 55.7549 35.9755H42.1714C41.4163 35.9755 40.8043 36.5876 40.8043 37.3427V49.5583H6.96719C3.12539 49.5583 0 52.6837 0 56.5252C0 60.3647 3.12539 63.4883 6.96719 63.4883H7.02611V67.318C7.02611 68.7214 8.16799 69.8633 9.57141 69.8633H19.1088C20.5123 69.8633 21.6541 68.7214 21.6541 67.318V63.4883H45.3074V67.318C45.3074 68.7214 46.4492 69.8633 47.8527 69.8633H57.39C58.7936 69.8633 59.9353 68.7214 59.9353 67.318V63.4883H63.0325C66.8743 63.4883 69.9997 60.3647 69.9997 56.5252C70 52.6837 66.8746 49.5583 63.0328 49.5583ZM57.5029 60.7541H12.4939C13.3938 59.5808 13.9304 58.1149 13.9304 56.5254C13.9304 54.9342 13.3934 53.467 12.4928 52.2928H57.5042C56.6031 53.4671 56.0658 54.9344 56.0658 56.5254C56.0656 58.1149 56.6025 59.5808 57.5029 60.7541ZM43.5386 38.7098H47.5978V41.1366C47.5978 41.8917 48.2099 42.5038 48.965 42.5038C49.7201 42.5038 50.3322 41.8917 50.3322 41.1366V38.7098H54.3875V49.5583H43.5385V38.7098H43.5386ZM2.73438 56.5252C2.73438 54.231 4.67277 52.2927 6.96719 52.2927C9.29906 52.2927 11.196 54.1915 11.196 56.5252C11.196 58.857 9.29906 60.754 6.96719 60.754C4.67277 60.7541 2.73438 58.8175 2.73438 56.5252ZM18.9198 67.1289H9.76049V63.4885H18.9198V67.1289ZM57.2012 67.1289H48.0419V63.4885H57.2012V67.1289ZM63.0328 60.7541C60.6989 60.7541 58.8 58.8571 58.8 56.5254C58.8 54.1915 60.6989 52.2928 63.0328 52.2928C65.3272 52.2928 67.2656 54.2311 67.2656 56.5254C67.2656 58.8175 65.3272 60.7541 63.0328 60.7541Z" fill="#272727"/>
    <path d="M68.6328 0.136719H41.1368C40.3817 0.136719 39.7696 0.748809 39.7696 1.50391C39.7696 2.259 40.3817 2.87109 41.1368 2.87109H67.2656V6.97266H2.73438V2.87109H28.8594C29.6145 2.87109 30.2266 2.259 30.2266 1.50391C30.2266 0.748809 29.6145 0.136719 28.8594 0.136719H1.36719C0.61209 0.136719 0 0.748809 0 1.50391V8.33984C0 9.09494 0.61209 9.70703 1.36719 9.70703H13.1067V11.3122C13.1067 13.7051 15.0534 15.6518 17.4464 15.6518H19.6678V20.5944H13.6988C13.3648 20.5944 13.0423 20.7167 12.7922 20.9382L7.49451 25.6312C7.20152 25.8907 7.03391 26.2633 7.03391 26.6546V36.6296C7.03391 37.3846 7.646 37.9967 8.40109 37.9967H12.8741V43.543C12.8741 44.2981 13.4862 44.9102 14.2413 44.9102H27.8247C28.5798 44.9102 29.1919 44.2981 29.1919 43.543V37.9967H33.6689C34.424 37.9967 35.0361 37.3846 35.0361 36.6296V26.6546C35.0361 26.2633 34.8683 25.8907 34.5755 25.6312L29.2778 20.9382C29.0277 20.7167 28.7052 20.5944 28.3712 20.5944H22.4022V15.6518H24.6237C27.0166 15.6518 28.9633 13.7051 28.9633 11.3122V9.70703H68.6328C69.3879 9.70703 70 9.09494 70 8.33984V1.50391C70 0.748809 69.3879 0.136719 68.6328 0.136719ZM26.4575 42.1758H15.6085V31.3273H19.6677V33.7541C19.6677 34.5092 20.2798 35.1213 21.0349 35.1213C21.79 35.1213 22.4021 34.5092 22.4021 33.7541V31.3273H26.4574V42.1758H26.4575ZM32.3016 27.2699V35.2624H29.1918V29.9601C29.1918 29.205 28.5797 28.5929 27.8246 28.5929H14.2412C13.4861 28.5929 12.874 29.205 12.874 29.9601V35.2624H9.76828V27.2699L14.2172 23.3287H27.8526L32.3016 27.2699ZM26.2288 11.3122C26.2288 12.1974 25.5087 12.9175 24.6236 12.9175H17.4463C16.561 12.9175 15.8409 12.1974 15.8409 11.3122V9.70703H26.2287V11.3122H26.2288Z" fill="#272727"/>
    <path d="M49.5579 55.1581H20.442C19.6869 55.1581 19.0748 55.7702 19.0748 56.5253C19.0748 57.2804 19.6869 57.8925 20.442 57.8925H49.558C50.3131 57.8925 50.9252 57.2804 50.9252 56.5253C50.9252 55.7702 50.313 55.1581 49.5579 55.1581Z" fill="#272727"/>
    <path d="M34.9983 2.87109H35.0061C35.7612 2.87109 36.3694 2.259 36.3694 1.50391C36.3694 0.748809 35.7535 0.136719 34.9984 0.136719C34.2433 0.136719 33.6312 0.748809 33.6312 1.50391C33.6312 2.259 34.2432 2.87109 34.9983 2.87109Z" fill="#272727"/>
    <circle cx="55" cy="55" r="14" fill="white" stroke="#272727" stroke-width="2"/>
    <path fill-rule="evenodd" clip-rule="evenodd" d="M48.9999 59.7745L50.5391 61.3137L55.1568 56.696L59.7745 61.3138L61.3137 59.7746L56.696 55.1568L61.3136 50.5392L59.7744 49L55.1568 53.6176L50.5393 49.0001L49 50.5393L53.6176 55.1568L48.9999 59.7745Z" fill="#F37110"/>
</svg>