<svg width="70" height="70" viewBox="0 0 70 70" fill="none" xmlns="http://www.w3.org/2000/svg">
    <path d="M50.9909 40.4688H19.0096C18.402 40.4682 17.8012 40.3411 17.2455 40.0956C16.6897 39.85 16.1912 39.4914 15.7817 39.0426C15.3722 38.5938 15.0606 38.0646 14.8669 37.4887C14.6732 36.9128 14.6015 36.3029 14.6565 35.6978L16.4065 16.4062H53.594L55.344 35.6978C55.399 36.3029 55.3273 36.9128 55.1336 37.4887C54.9399 38.0646 54.6283 38.5938 54.2188 39.0426C53.8093 39.4914 53.3108 39.85 52.755 40.0956C52.1993 40.3411 51.5985 40.4682 50.9909 40.4688Z" fill="white"/>
    <path d="M50.3125 12.0313V21.0875C49.9812 20.8909 49.6039 20.7853 49.2188 20.7813H47.0312C47.0312 19.6209 46.5703 18.5081 45.7498 17.6877C44.9294 16.8672 43.8166 16.4063 42.6562 16.4063H27.3438C26.1834 16.4063 25.0706 16.8672 24.2502 17.6877C23.4297 18.5081 22.9688 19.6209 22.9688 20.7813H20.7812C20.3961 20.7853 20.0188 20.8909 19.6875 21.0875V10.9375C19.6875 9.19702 20.3789 7.52782 21.6096 6.29712C22.8403 5.06641 24.5095 4.375 26.25 4.375H27.3438C28.214 4.375 29.0486 4.72071 29.6639 5.33606C30.2793 5.95141 30.625 6.78601 30.625 7.65625C30.6243 7.08152 30.737 6.51229 30.9566 5.98116C31.1762 5.45004 31.4984 4.96746 31.9048 4.56106C32.3112 4.15466 32.7938 3.83242 33.3249 3.61281C33.856 3.39321 34.4253 3.28053 35 3.28125H41.5625C43.8831 3.28125 46.1087 4.20313 47.7497 5.84407C49.3906 7.48501 50.3125 9.71061 50.3125 12.0313Z" fill="white"/>
    <path d="M27.3438 4.375H26.25C24.5095 4.375 22.8403 5.0664 21.6096 6.29711C20.3789 7.52782 19.6875 9.19702 19.6875 10.9375V21.0875C20.0188 20.8909 20.3961 20.7852 20.7812 20.7812H22.9688C22.9688 19.6209 23.4297 18.5081 24.2502 17.6877C25.0706 16.8672 26.1834 16.4062 27.3438 16.4062H30.625V7.65625C30.625 6.78601 30.2793 5.95141 29.6639 5.33606C29.0486 4.7207 28.214 4.375 27.3438 4.375Z" fill="white"/>
    <path d="M63.9931 60.5117C63.5665 56.4713 61.7473 52.7053 58.8477 49.8596C55.948 47.0138 52.1486 45.2656 48.1009 44.9148C47.011 47.4882 45.1873 49.6837 42.8574 51.2271C40.5276 52.7706 37.7947 53.5937 35 53.5937C32.2053 53.5937 29.4724 52.7706 27.1426 51.2271C24.8127 49.6837 22.989 47.4882 21.8991 44.9148C17.8416 45.2634 14.0327 47.0162 11.1287 49.8711C8.22458 52.7261 6.40712 56.5045 5.98937 60.5554L5.46875 66.7187H64.5312L63.9931 60.5117Z" fill="white"/>
    <path d="M63.9932 60.5117C63.5665 56.4713 61.7473 52.7053 58.8477 49.8596C55.9481 47.0138 52.1486 45.2656 48.101 44.9148C48.055 45.0242 48.0014 45.1226 47.9544 45.2276C51.5852 45.978 54.8836 47.8629 57.3733 50.6101C59.863 53.3573 61.4151 56.8248 61.8057 60.5117L62.3438 66.7187H64.5313L63.9932 60.5117Z" fill="white"/>
    <path d="M55.7812 14.2188C55.7795 14.7984 55.5485 15.3538 55.1386 15.7636C54.7288 16.1735 54.1734 16.4045 53.5938 16.4062H16.4062C15.8261 16.4062 15.2697 16.1758 14.8595 15.7655C14.4492 15.3553 14.2188 14.7989 14.2188 14.2188C14.2188 13.6386 14.4492 13.0822 14.8595 12.672C15.2697 12.2617 15.8261 12.0312 16.4062 12.0312H53.5938C54.1734 12.033 54.7288 12.264 55.1386 12.6739C55.5485 13.0837 55.7795 13.6391 55.7812 14.2188Z" fill="white"/>
    <path d="M54.658 12.321C54.588 12.8445 54.3309 13.3251 53.9343 13.6739C53.5376 14.0227 53.0282 14.2162 52.5 14.2186H15.3125C14.9386 14.2163 14.5717 14.1164 14.2483 13.9288C14.2318 14.0246 14.2219 14.1215 14.2188 14.2186C14.2205 14.7983 14.4515 15.3537 14.8614 15.7635C15.2712 16.1734 15.8266 16.4044 16.4062 16.4061H53.5938C54.0776 16.4082 54.5483 16.2492 54.9318 15.9542C55.3153 15.6592 55.5896 15.2449 55.7116 14.7767C55.8336 14.3085 55.7962 13.813 55.6055 13.3683C55.4147 12.9237 55.0813 12.5552 54.658 12.321Z" fill="white"/>
    <path d="M46.5939 44.8438H42.6564C42.0768 44.8421 41.5214 44.6111 41.1115 44.2012C40.7017 43.7913 40.4706 43.2359 40.4689 42.6563V39.1563C38.7748 40.0183 36.901 40.4677 35.0002 40.4677C33.0994 40.4677 31.2255 40.0183 29.5314 39.1563V42.6563C29.5297 43.2359 29.2987 43.7913 28.8888 44.2012C28.4789 44.6111 27.9235 44.8421 27.3439 44.8438H23.3977C22.8924 44.8438 22.3947 44.8722 21.8992 44.9149C22.9892 47.4883 24.8129 49.6838 27.1427 51.2272C29.4726 52.7707 32.2054 53.5938 35.0002 53.5938C37.7949 53.5938 40.5277 52.7707 42.8576 51.2272C45.1875 49.6838 47.0112 47.4883 48.1011 44.9149C47.6013 44.8722 47.0981 44.8438 46.5939 44.8438Z" fill="white"/>
    <path d="M40.4688 40.2501V39.1563C38.7747 40.0184 36.9008 40.4677 35 40.4677C33.0992 40.4677 31.2253 40.0184 29.5312 39.1563V40.2501C31.2253 41.1121 33.0992 41.5615 35 41.5615C36.9008 41.5615 38.7747 41.1121 40.4688 40.2501Z" fill="white"/>
    <path d="M47.0313 28.0437C47.0313 28.175 47.0313 28.3063 47.0204 28.4375H49.2188C49.7985 28.4358 50.3538 28.2047 50.7637 27.7949C51.1736 27.385 51.4046 26.8296 51.4063 26.25V22.9688C51.4046 22.3891 51.1736 21.8337 50.7637 21.4239C50.3538 21.014 49.7985 20.783 49.2188 20.7812H47.0313V28.0437Z" fill="white"/>
    <path d="M22.9688 20.7812H20.7812C20.2016 20.783 19.6462 21.014 19.2364 21.4239C18.8265 21.8337 18.5955 22.3891 18.5938 22.9688V26.25C18.5955 26.8296 18.8265 27.385 19.2364 27.7949C19.6462 28.2047 20.2016 28.4358 20.7812 28.4375H22.9688V20.7812Z" fill="white"/>
    <path d="M22.9688 16.4062H47.0312V28.4375C47.0312 31.6284 45.7637 34.6886 43.5074 36.9449C41.2511 39.2012 38.1909 40.4688 35 40.4688C31.8091 40.4688 28.7489 39.2012 26.4926 36.9449C24.2363 34.6886 22.9688 31.6284 22.9688 28.4375V16.4062Z" fill="white"/>
    <path d="M35 26.25L27.3438 28.4375V37.718C29.499 39.496 32.206 40.4684 35 40.4684C37.794 40.4684 40.501 39.496 42.6562 37.718V28.4375L35 26.25Z" fill="#2A93C9"/>
    <path d="M40.469 27.8129V31.5316C40.4901 33.5702 39.7087 35.5353 38.2934 37.0027C36.8782 38.4701 34.9427 39.3222 32.9047 39.3749H32.8128C31.3727 39.3752 29.9444 39.1158 28.5964 38.6093C30.7348 39.9616 33.2459 40.6035 35.771 40.4434C38.2961 40.2833 40.706 39.3294 42.6565 37.7179V28.4374L40.469 27.8129Z" fill="#2A93C9"/>
    <path d="M65.0783 60.3969C64.6077 55.8249 62.4562 51.5905 59.041 48.5148C55.6257 45.439 51.19 43.741 46.5939 43.75H42.6564C42.3663 43.75 42.0881 43.6348 41.883 43.4296C41.6779 43.2245 41.5626 42.9463 41.5626 42.6562V41.5625H50.9908C51.7502 41.5616 52.501 41.4026 53.1957 41.0959C53.8904 40.7891 54.5136 40.3412 55.0259 39.7806C55.5382 39.22 55.9282 38.559 56.1712 37.8395C56.4143 37.1201 56.505 36.358 56.4376 35.6016L54.7751 17.2703C55.4894 16.9953 56.0847 16.479 56.458 15.8108C56.8312 15.1427 56.9587 14.365 56.8184 13.6126C56.6781 12.8603 56.2787 12.1808 55.6897 11.6922C55.1007 11.2035 54.3592 10.9365 53.5939 10.9375H51.3408C51.0681 8.53346 49.9212 6.31354 48.1182 4.70015C46.3153 3.08675 43.9821 2.19248 41.5626 2.1875H35.0001C33.5475 2.18937 32.1549 2.76763 31.1283 3.79531C30.8825 4.03802 30.6625 4.30561 30.472 4.59375C30.0642 4.17774 29.5775 3.84735 29.0403 3.62197C28.5032 3.39659 27.9264 3.28075 27.3439 3.28125H26.2501C24.2203 3.28357 22.2742 4.09095 20.8389 5.52627C19.4036 6.9616 18.5962 8.90765 18.5939 10.9375H16.4064C15.6411 10.9365 14.8996 11.2035 14.3105 11.6922C13.7215 12.1808 13.3222 12.8603 13.1819 13.6126C13.0415 14.365 13.1691 15.1427 13.5423 15.8108C13.9155 16.479 14.5109 16.9953 15.2251 17.2703L13.5626 35.6016C13.4953 36.358 13.586 37.1201 13.829 37.8395C14.0721 38.559 14.4621 39.22 14.9744 39.7806C15.4866 40.3412 16.1099 40.7891 16.8046 41.0959C17.4992 41.4026 18.2501 41.5616 19.0095 41.5625H28.4376V42.6562C28.4376 42.9463 28.3224 43.2245 28.1173 43.4296C27.9122 43.6348 27.634 43.75 27.3439 43.75H23.3955C18.7868 43.7385 14.3391 45.4439 10.9196 48.5337C7.50019 51.6236 5.35419 55.8763 4.90014 60.4625L4.37514 66.6312C4.36218 66.7822 4.38091 66.9343 4.43012 67.0776C4.47933 67.221 4.55793 67.3524 4.6609 67.4636C4.76386 67.5749 4.88892 67.6633 5.02806 67.7234C5.16719 67.7835 5.31734 67.8138 5.46889 67.8125H64.5314C64.6837 67.8131 64.8345 67.7819 64.974 67.7209C65.1136 67.6599 65.2388 67.5704 65.3418 67.4582C65.4448 67.3459 65.5231 67.2134 65.5719 67.0692C65.6207 66.9249 65.6389 66.772 65.6251 66.6203L65.0783 60.3969ZM41.5626 37.0781C39.758 38.5202 37.5285 39.3274 35.2189 39.375H35.022C32.6449 39.3878 30.3302 38.615 28.4376 37.1766V29.2578L35.0001 27.3875L41.5626 29.2578V37.0781ZM53.408 38.3031C53.1034 38.6421 52.7306 38.9128 52.314 39.0976C51.8974 39.2823 51.4465 39.3768 50.9908 39.375H42.1204C42.547 39.0797 42.9626 38.7734 43.3673 38.4344L43.422 38.3797C43.4249 38.3797 43.4277 38.3785 43.4297 38.3765C43.4318 38.3744 43.4329 38.3717 43.4329 38.3688C46.0209 36.1053 47.6611 32.9499 48.0267 29.5312H49.2189C50.0883 29.5287 50.9214 29.1821 51.5362 28.5673C52.151 27.9525 52.4975 27.1194 52.5001 26.25V22.9688C52.4986 22.5099 52.4005 22.0565 52.212 21.6381C52.0235 21.2198 51.749 20.8458 51.4064 20.5406V17.5H52.5986L54.2611 35.7984C54.305 36.2526 54.2517 36.7109 54.1046 37.1428C53.9575 37.5747 53.72 37.9702 53.408 38.3031ZM43.7501 34.7812V28.8859L45.9376 26.6984V28.0437C45.9376 28.1422 45.9376 28.2516 45.9267 28.4047C45.8526 30.6996 45.0947 32.92 43.7501 34.7812ZM49.2189 19.6875H48.0158C47.8496 18.8898 47.5015 18.1412 46.9986 17.5H49.2189V19.6875ZM50.3126 22.9688V26.25C50.3126 26.5401 50.1974 26.8183 49.9923 27.0234C49.7872 27.2285 49.509 27.3438 49.2189 27.3438H48.1251V21.875H49.2189C49.509 21.875 49.7872 21.9902 49.9923 22.1954C50.1974 22.4005 50.3126 22.6787 50.3126 22.9688ZM26.2501 5.46875H27.3439C27.9235 5.47048 28.4789 5.70151 28.8888 6.11137C29.2986 6.52123 29.5297 7.07662 29.5314 7.65625C29.5314 7.94633 29.6466 8.22453 29.8517 8.42965C30.0569 8.63477 30.3351 8.75 30.6251 8.75C30.9152 8.75 31.1934 8.63477 31.3985 8.42965C31.6037 8.22453 31.7189 7.94633 31.7189 7.65625C31.7172 7.22486 31.8008 6.7974 31.9651 6.39852C32.1294 5.99964 32.371 5.63722 32.6761 5.33219C32.9811 5.02715 33.3435 4.78552 33.7424 4.62123C34.1413 4.45695 34.5688 4.37326 35.0001 4.375H41.5626C43.4022 4.37716 45.1794 5.04154 46.5693 6.2466C47.9591 7.45167 48.8686 9.11685 49.1314 10.9375H20.7814C20.7814 9.4871 21.3576 8.0961 22.3831 7.07051C23.4087 6.04492 24.7997 5.46875 26.2501 5.46875ZM15.3126 14.2188C15.3126 13.9287 15.4279 13.6505 15.633 13.4454C15.8381 13.2402 16.1163 13.125 16.4064 13.125H53.5939C53.884 13.125 54.1622 13.2402 54.3673 13.4454C54.5724 13.6505 54.6876 13.9287 54.6876 14.2188C54.6876 14.5088 54.5724 14.787 54.3673 14.9921C54.1622 15.1973 53.884 15.3125 53.5939 15.3125H16.4064C16.1163 15.3125 15.8381 15.1973 15.633 14.9921C15.4279 14.787 15.3126 14.5088 15.3126 14.2188ZM24.0626 26.6984L26.2501 28.8859V34.9781C24.8332 33.0917 24.0657 30.7968 24.0626 28.4375V26.6984ZM20.7814 19.6875V17.5H23.0017C22.4988 18.1412 22.1507 18.8898 21.9845 19.6875H20.7814ZM21.8751 21.875V27.3438H20.7814C20.4913 27.3438 20.2131 27.2285 20.008 27.0234C19.8029 26.8183 19.6876 26.5401 19.6876 26.25V22.9688C19.6876 22.6787 19.8029 22.4005 20.008 22.1954C20.2131 21.9902 20.4913 21.875 20.7814 21.875H21.8751ZM19.0095 39.375C18.5543 39.3727 18.1045 39.2762 17.6884 39.0916C17.2723 38.907 16.8989 38.6382 16.5918 38.3023C16.2846 37.9664 16.0503 37.5705 15.9035 37.1396C15.7568 36.7086 15.7009 36.252 15.7392 35.7984L17.4017 17.5H18.5939V20.5406C18.2512 20.8458 17.9767 21.2198 17.7883 21.6381C17.5998 22.0565 17.5016 22.5099 17.5001 22.9688V26.25C17.5027 27.1194 17.8493 27.9525 18.4641 28.5673C19.0789 29.1821 19.9119 29.5287 20.7814 29.5312H21.9408C22.0809 31.2562 22.562 32.9362 23.3562 34.4739C24.1504 36.0115 25.2419 37.3763 26.5673 38.4891H26.5783L26.6439 38.5547L26.6548 38.5438C26.6577 38.5438 26.6605 38.5449 26.6626 38.547C26.6646 38.549 26.6658 38.5518 26.6658 38.5547L26.6548 38.5656C27.0028 38.8572 27.3681 39.1274 27.7486 39.375H19.0095ZM27.6611 27.2125L24.0626 23.6141V20.7812C24.0652 19.9118 24.4118 19.0787 25.0266 18.4639C25.6414 17.8491 26.4744 17.5026 27.3439 17.5H42.6564C43.5258 17.5026 44.3589 17.8491 44.9737 18.4639C45.5885 19.0787 45.935 19.9118 45.9376 20.7812V23.6141L42.3392 27.2125L35.2955 25.2C35.1024 25.1453 34.8979 25.1453 34.7048 25.2L27.6611 27.2125ZM27.3439 45.9375C28.2133 45.9349 29.0464 45.5884 29.6612 44.9736C30.276 44.3588 30.6225 43.5257 30.6251 42.6562V41.5625H39.3751V42.6562C39.3777 43.5257 39.7243 44.3588 40.3391 44.9736C40.9539 45.5884 41.7869 45.9349 42.6564 45.9375H46.3642C45.2119 47.9316 43.5552 49.5873 41.5605 50.7385C39.5657 51.8896 37.3032 52.4956 35.0001 52.4956C32.6971 52.4956 30.4346 51.8896 28.4398 50.7385C26.4451 49.5873 24.7884 47.9316 23.6361 45.9375H27.3439ZM52.5001 65.625V57.9688C52.5001 57.6787 52.3849 57.4005 52.1798 57.1954C51.9747 56.9902 51.6965 56.875 51.4064 56.875C51.1163 56.875 50.8381 56.9902 50.633 57.1954C50.4279 57.4005 50.3126 57.6787 50.3126 57.9688V65.625H19.6876V57.9688C19.6876 57.6787 19.5724 57.4005 19.3673 57.1954C19.1622 56.9902 18.884 56.875 18.5939 56.875C18.3038 56.875 18.0256 56.9902 17.8205 57.1954C17.6154 57.4005 17.5001 57.6787 17.5001 57.9688V65.625H6.66107L7.0767 60.6703C7.44683 56.9987 9.04765 53.5601 11.6191 50.9132C14.1905 48.2663 17.5814 46.5668 21.2408 46.0906C22.4993 48.6678 24.4564 50.8397 26.889 52.3589C29.3217 53.8781 32.1321 54.6836 35.0001 54.6836C37.8682 54.6836 40.6786 53.8781 43.1112 52.3589C45.5439 50.8397 47.5009 48.6678 48.7595 46.0906C52.4054 46.5675 55.784 48.2593 58.35 50.8928C60.916 53.5262 62.5196 56.9477 62.9017 60.6047L63.3392 65.625H52.5001Z" fill="#272727"/>
    <path d="M39.375 25.1562C39.6651 25.1562 39.9433 25.041 40.1484 24.8359C40.3535 24.6308 40.4688 24.3526 40.4688 24.0625V22.9688C40.4688 22.6787 40.3535 22.4005 40.1484 22.1954C39.9433 21.9902 39.6651 21.875 39.375 21.875C39.0849 21.875 38.8067 21.9902 38.6016 22.1954C38.3965 22.4005 38.2812 22.6787 38.2812 22.9688V24.0625C38.2812 24.3526 38.3965 24.6308 38.6016 24.8359C38.8067 25.041 39.0849 25.1562 39.375 25.1562Z" fill="#272727"/>
    <path d="M30.625 25.1562C30.9151 25.1562 31.1933 25.041 31.3984 24.8359C31.6035 24.6308 31.7188 24.3526 31.7188 24.0625V22.9688C31.7188 22.6787 31.6035 22.4005 31.3984 22.1954C31.1933 21.9902 30.9151 21.875 30.625 21.875C30.3349 21.875 30.0567 21.9902 29.8516 22.1954C29.6465 22.4005 29.5312 22.6787 29.5312 22.9688V24.0625C29.5312 24.3526 29.6465 24.6308 29.8516 24.8359C30.0567 25.041 30.3349 25.1562 30.625 25.1562Z" fill="#272727"/>
    <path d="M31.7188 32.8125H38.2812C38.5713 32.8125 38.8495 32.6973 39.0546 32.4921C39.2598 32.287 39.375 32.0088 39.375 31.7188C39.375 31.4287 39.2598 31.1505 39.0546 30.9454C38.8495 30.7402 38.5713 30.625 38.2812 30.625H31.7188C31.4287 30.625 31.1505 30.7402 30.9454 30.9454C30.7402 31.1505 30.625 31.4287 30.625 31.7188C30.625 32.0088 30.7402 32.287 30.9454 32.4921C31.1505 32.6973 31.4287 32.8125 31.7188 32.8125Z" fill="#272727"/>
    <path d="M39.375 35C39.375 34.7099 39.2598 34.4317 39.0546 34.2266C38.8495 34.0215 38.5713 33.9062 38.2812 33.9062H31.7188C31.4287 33.9062 31.1505 34.0215 30.9454 34.2266C30.7402 34.4317 30.625 34.7099 30.625 35C30.625 35.2901 30.7402 35.5683 30.9454 35.7734C31.1505 35.9785 31.4287 36.0938 31.7188 36.0938H38.2812C38.5713 36.0938 38.8495 35.9785 39.0546 35.7734C39.2598 35.5683 39.375 35.2901 39.375 35Z" fill="#272727"/>
</svg>