<svg width="70" height="70" viewBox="0 0 70 70" fill="none" xmlns="http://www.w3.org/2000/svg">
    <path d="M33.3101 68.9303V59.3254C33.3101 58.5703 33.9222 57.9583 34.6773 57.9583H44.2421L33.3101 68.9303Z" fill="#2A93C9"/>
    <path d="M61.7912 68.9304C60.3745 67.5254 59.5769 65.6132 59.5753 63.618L59.5668 63.5045C59.5668 63.4164 59.6384 63.3447 59.7269 63.3441L63.8336 63.3237C63.9221 63.3233 63.9937 68.5 63.9937 63.4825L64.0022 63.6104C64.0038 65.5971 63.2162 67.5031 61.8126 68.9091L61.7912 68.9304Z" fill="#2A93C9"/>
    <path d="M67.1663 33.896L57.3751 33.9446C56.3764 33.9495 55.5669 34.7605 55.5669 35.7558C55.5669 36.7513 56.3764 37.5541 57.3751 37.5491L65.358 37.5095V48.1037C65.358 49.0992 66.1675 49.902 67.1663 49.897C68.165 49.8921 68.9745 49.0811 68.9745 48.0858V35.6892C68.9745 34.6939 68.1648 33.8911 67.1663 33.896Z" fill="#2A93C9"/>
    <path d="M67.1663 33.896L61.9107 33.9217L61.8879 37.5189L65.3579 37.5098V48.104C65.3579 49.0994 66.1674 49.9022 67.1662 49.8973C68.1649 49.8924 68.9744 49.0814 68.9744 48.0861V35.6895C68.9746 34.6939 68.1649 33.8911 67.1663 33.896Z" fill="#2A93C9"/>
    <path d="M51.0162 2.7512L10.624 0.0494963C9.30727 -0.0377302 8.16525 0.960727 8.07707 2.27705L7.76111 7.00164H2.39258C1.07338 7.00164 0 8.07502 0 9.39422V67.5634C0 68.8826 1.07338 69.956 2.39258 69.956H33.3103C33.5783 69.956 33.8438 69.8465 34.0338 69.6572L38.7011 65.0106C38.7486 65.0207 38.797 65.0288 38.8467 65.0321L46.815 65.565C48.0867 65.6489 49.2766 64.6145 49.3619 63.3374L53.2438 5.29826C53.3311 3.99561 52.3187 2.83829 51.0162 2.7512ZM34.3357 66.4487V59.3257C34.3357 59.1373 34.4891 58.9839 34.6775 58.9839H41.7732L34.3357 66.4487ZM47.3156 63.2007C47.2823 63.4071 47.161 63.5132 46.952 63.5188L40.6246 63.0956L44.9657 58.7737C45.159 58.5814 45.2677 58.3198 45.2677 58.0471V9.39436C45.2677 8.07516 44.1943 7.00178 42.8751 7.00178H32.212C30.8863 7.00178 30.8863 9.05256 32.212 9.05256H42.8751C43.0637 9.05256 43.2169 9.20596 43.2169 9.39436V56.9331H34.6775C33.3583 56.9331 32.2849 58.0065 32.2849 59.3257V67.9052H2.39258C2.20418 67.9052 2.05078 67.7518 2.05078 67.5634V9.39436C2.05078 9.20596 2.20418 9.05256 2.39258 9.05256H26.7515C28.0772 9.05256 28.0772 7.00178 26.7515 7.00178H9.81641L10.1232 2.41405C10.1566 2.20746 10.2778 2.10151 10.487 2.0959L50.8792 4.79746C51.0858 4.83082 51.1919 4.95209 51.1975 5.16127L47.3156 63.2007Z" fill="#272727"/>
    <path d="M36.6169 32.4089H8.6507C8.08441 32.4089 7.62531 32.868 7.62531 33.4343C7.62531 34.0006 8.08441 34.4597 8.6507 34.4597H36.6169C37.1834 34.4597 37.6423 34.0006 37.6423 33.4343C37.6423 32.868 37.1834 32.4089 36.6169 32.4089Z" fill="#272727"/>
    <path d="M36.6169 39.5571H8.6507C8.08441 39.5571 7.62531 40.0162 7.62531 40.5825C7.62531 41.1488 8.08441 41.6079 8.6507 41.6079H36.6169C37.1834 41.6079 37.6423 41.1488 37.6423 40.5825C37.6423 40.0162 37.1834 39.5571 36.6169 39.5571Z" fill="#272727"/>
    <path d="M7.62531 26.2859C7.62531 26.8522 8.08441 27.3113 8.6507 27.3113H36.6169C37.1834 27.3113 37.6423 26.8522 37.6423 26.2859C37.6423 25.7196 37.1834 25.2605 36.6169 25.2605H8.6507C8.08441 25.2605 7.62531 25.7196 7.62531 26.2859Z" fill="#272727"/>
    <path d="M12.5518 19.1377C12.5518 19.704 13.0109 20.1631 13.5771 20.1631H31.6906C32.2569 20.1631 32.716 19.704 32.716 19.1377C32.716 18.5714 32.2569 18.1123 31.6906 18.1123H13.5771C13.0109 18.1123 12.5518 18.5714 12.5518 19.1377Z" fill="#272727"/>
    <path d="M26.6267 59.9905C24.7825 59.9954 22.9383 59.9994 21.0941 60.0023C20.4742 60.0032 19.8545 60.004 19.2347 60.0044C18.1116 60.0053 17.3548 59.7798 17.1033 58.5444C16.8905 57.4999 15.4129 57.6403 15.1258 58.5444C14.4162 60.778 13.2426 59.9029 12.5853 58.4005C11.9294 56.9016 11.7613 55.2241 11.4748 53.629C11.2643 52.4569 9.49159 52.7854 9.46069 53.9016C9.41995 55.3715 9.28268 56.8179 8.90957 58.2435C8.52471 59.7143 7.9479 61.1279 7.37532 62.5332C6.87616 63.7583 8.86104 64.2854 9.35282 63.0784C9.86018 61.8332 10.3682 60.5811 10.7464 59.2894C11.4491 60.9792 12.903 62.8906 14.9747 61.7642C15.3601 61.5546 15.7201 61.2566 16.036 60.9092C17.1134 62.1542 18.717 62.056 20.2174 62.0543C22.3539 62.0515 24.4905 62.0469 26.627 62.0413C27.9462 62.0379 27.9486 59.9871 26.6267 59.9905Z" fill="#272727"/>
    <path d="M69.1705 33.6928C68.6377 33.1626 67.9052 32.8907 67.1614 32.8706L66.3865 32.8744V31.409C66.3865 30.5163 65.8563 29.5732 65.0968 29.1036V27.0394C65.0968 22.7917 58.4835 22.8102 58.4835 27.0594V29.1238C57.7098 29.6021 57.1908 30.4556 57.1908 31.4278V32.9293C53.7775 33.1617 53.7678 38.3632 57.1946 38.5665C57.2165 43.1568 57.2154 47.6719 57.1908 52.3391C57.1841 53.6262 59.2346 53.7016 59.2416 52.3499C59.2662 47.6788 59.2673 43.1597 59.2455 38.5655L64.333 38.5402C64.333 38.5402 64.3264 53.6952 64.3264 60.5224C64.3264 63.8499 59.2379 63.872 59.2379 60.4878L59.2396 58.6179C59.3196 57.2945 57.2727 57.171 57.1926 58.4943V60.249C57.1926 61.7529 57.6577 63.0265 58.5581 63.9225C58.6382 66.068 59.5422 68.1441 61.0695 69.6586C61.5077 70.0934 62.1143 69.9605 62.5384 69.6337C64.0922 68.0772 64.9677 66.0252 65.0224 63.835C65.6993 63.1608 66.377 62.482 66.377 60.1578L66.3779 50.8129C68.1511 51.3173 70.0001 49.945 70.0001 48.0859V35.6893C70.0001 34.9342 69.7055 34.2252 69.1705 33.6928ZM59.2416 32.9099V31.4277C59.2416 31.1243 59.4498 30.8699 59.7301 30.7943L63.835 30.7739C63.9499 30.8023 64.0558 30.8566 64.1417 30.9422C64.2668 31.0667 64.3357 31.2325 64.3357 31.409V32.8847L59.2416 32.9099ZM61.7942 25.8005C62.4237 25.8005 63.0459 26.4176 63.0459 27.0394V28.7027L60.5341 28.7152V27.0594C60.5342 26.3685 61.0992 25.8039 61.7942 25.8005ZM61.7927 67.3494C61.316 66.6738 60.9712 65.9097 60.7787 65.1064C61.0961 65.1752 61.4177 65.211 61.7394 65.211C62.0986 65.211 62.4576 65.1665 62.8111 65.0802C62.6233 65.8956 62.279 66.6643 61.7927 67.3494ZM67.9493 48.0859C67.9493 49.0567 66.3836 49.1332 66.3836 48.1038C66.3836 48.1038 66.3854 38.4003 66.3865 37.5108C66.3872 36.9372 65.9103 36.4842 65.3532 36.4842L57.3703 36.5239C56.3802 36.5239 56.4033 34.9747 57.3804 34.9699L67.1715 34.9214C67.645 34.9617 67.9042 35.2178 67.9492 35.6893V48.0859H67.9493Z" fill="#272727"/>
</svg>