<svg width="30" height="30" viewBox="0 0 30 30" fill="none" xmlns="http://www.w3.org/2000/svg">
    <path d="M29.3911 22.5353L18.7818 3.00376C17.981 1.65576 16.5668 0.850677 14.9989 0.850677C13.4309 0.850677 12.0167 1.65576 11.2159 3.00376C11.2099 3.01408 11.2048 3.02439 11.1988 3.0347L0.624693 22.5044C-0.193217 23.8808 -0.208686 25.5338 0.582564 26.9257C1.37563 28.3184 2.80438 29.1492 4.40674 29.1492H25.5324C27.1347 29.1492 28.6222 28.3184 29.4152 26.9257C30.2064 25.5339 30.191 23.8808 29.3911 22.5353ZM13.2393 9.79378C13.2393 8.82195 14.0271 8.03421 14.9989 8.03421C15.9707 8.03421 16.7584 8.82201 16.7584 9.79378V16.8321C16.7584 17.8038 15.9706 18.5917 14.9989 18.5917C14.0271 18.5917 13.2393 17.8038 13.2393 16.8321V9.79378ZM14.9989 25.6301C13.5434 25.6301 12.3594 24.4461 12.3594 22.9907C12.3594 21.5353 13.5434 20.3513 14.9989 20.3513C16.4543 20.3513 17.6382 21.5353 17.6382 22.9907C17.6383 24.4461 16.4543 25.6301 14.9989 25.6301Z" fill="white"/>
</svg>